<svg width="271" height="84" viewBox="0 0 271 84" fill="none" xmlns="http://www.w3.org/2000/svg">
<path d="M269.465 39.7085C261.073 43.6162 242.625 49.8911 222.088 49.8911C201.593 49.8911 184.284 40.7884 184.284 28.2683C184.284 14.7187 197.816 4.32068 220.395 4.32068C228.052 4.32068 238.998 4.90699 252.023 10.2813L252.544 9.25954C252.598 9.13241 252.605 8.99036 252.563 8.85877C252.522 8.72718 252.435 8.61462 252.318 8.54119C241.056 1.57146 226.014 0.0828857 217.059 0.0828857C182.04 0.0828857 164.169 14.5584 164.169 28.2809C164.169 42.0034 178.155 56.1551 217.662 56.1551C238.799 56.1551 260.093 48.0127 269.737 41.2756C269.854 41.1976 269.939 41.0806 269.977 40.9455C270.016 40.8104 270.005 40.6661 269.946 40.5384L269.465 39.7085Z" fill="white"/>
<path d="M156.156 51.759C156.156 51.6085 156.1 51.4633 155.999 51.352C155.898 51.2406 155.758 51.171 155.608 51.1569L147.583 49.7218V6.83457L155.608 5.40415C155.759 5.38931 155.898 5.3191 155.999 5.20721C156.1 5.09533 156.156 4.94979 156.156 4.79898V3.65622H118.943V4.79898C118.944 4.94984 119 5.09519 119.101 5.20696C119.203 5.31874 119.342 5.38899 119.492 5.40415L127.517 6.83457V49.7375L119.492 51.1727C119.342 51.1867 119.203 51.2562 119.102 51.3676C119.001 51.4792 118.945 51.6242 118.945 51.7747V52.9159H156.148L156.156 51.759Z" fill="white"/>
<path d="M168.341 73.6364L168.027 73.0438C140.257 83.9385 122.107 73.1428 104.956 63.2997C94.2871 57.2102 81.9395 54.8116 75.4501 54.4076C99.3681 50.0377 108.905 40.6803 108.905 28.6743C108.905 11.1431 85.2093 0 56.1883 0C47.0948 0 32.7015 1.57188 20.7268 8.41743C20.6021 8.48958 20.5088 8.6056 20.4651 8.7428C20.4215 8.88 20.4306 9.02853 20.4908 9.15936L21.0934 10.1339C35.1342 4.31796 49.2741 4.47515 54.0326 4.47515C75.6468 4.47515 88.7797 15.164 88.7797 28.2703C88.7797 38.0238 81.0378 51.7621 54.4055 51.7621C30.2625 51.7621 22.1603 40.4854 20.4561 31.9092L0 28.2735C0 40.1223 13.8472 55.5613 52.2419 56.1256C64.5297 56.1256 82.8317 63.0608 95.1667 69.7633C109.414 77.508 137.371 94.9417 168.212 74.1929C168.301 74.134 168.364 74.0436 168.387 73.9402C168.411 73.8368 168.395 73.7281 168.341 73.6364Z" fill="white"/>
</svg>
