<svg width="32" height="9" viewBox="0 0 32 9" fill="none" xmlns="http://www.w3.org/2000/svg">
<path d="M31.8187 4.25445C30.8278 4.67313 28.6494 5.34545 26.2244 5.34545C23.8043 5.34545 21.7604 4.37015 21.7604 3.02872C21.7604 1.57697 23.3584 0.4629 26.0245 0.4629C26.9286 0.4629 28.2211 0.525719 29.7592 1.10153L29.8207 0.992063C29.827 0.978442 29.8278 0.963223 29.8229 0.949124C29.818 0.935025 29.8078 0.922964 29.794 0.915097C28.4641 0.16834 26.688 0.0088501 25.6306 0.0088501C21.4955 0.0088501 19.3853 1.55979 19.3853 3.03006C19.3853 4.50034 21.0367 6.01659 25.7017 6.01659C28.1977 6.01659 30.712 5.14419 31.8508 4.42236C31.8646 4.414 31.8747 4.40146 31.8792 4.38699C31.8838 4.37252 31.8824 4.35705 31.8755 4.34337L31.8187 4.25445Z" fill="#0C0C0C"/>
<path d="M18.4391 5.54559C18.4391 5.52947 18.4325 5.51392 18.4205 5.50198C18.4086 5.49005 18.3921 5.4826 18.3744 5.48109L17.4268 5.32732V0.732261L18.3744 0.579002C18.3921 0.577412 18.4086 0.569889 18.4205 0.557902C18.4325 0.545914 18.4391 0.530321 18.4391 0.514162V0.391724H14.0449V0.514162C14.045 0.530326 14.0516 0.545899 14.0636 0.557875C14.0756 0.56985 14.092 0.577378 14.1098 0.579002L15.0574 0.732261V5.32901L14.1098 5.48277C14.0921 5.48427 14.0756 5.49172 14.0637 5.50365C14.0518 5.51562 14.0452 5.53115 14.0451 5.54727V5.66954H18.4381L18.4391 5.54559Z" fill="#0C0C0C"/>
<path d="M19.878 7.88962L19.8408 7.82612C16.5617 8.99341 14.4186 7.83673 12.3933 6.78211C11.1335 6.12967 9.67551 5.87267 8.90924 5.82938C11.7335 5.36119 12.8597 4.35861 12.8597 3.07224C12.8597 1.1939 10.0616 0 6.63478 0C5.56101 0 3.86143 0.168416 2.44744 0.901868C2.43272 0.909598 2.4217 0.922028 2.41655 0.936728C2.41139 0.951428 2.41247 0.967342 2.41957 0.98136L2.49074 1.08578C4.14869 0.462639 5.81835 0.47948 6.38023 0.47948C8.93247 0.47948 10.4832 1.62471 10.4832 3.02896C10.4832 4.07398 9.56904 5.54594 6.42426 5.54594C3.57343 5.54594 2.61671 4.33772 2.41549 3.41884L0 3.0293C0 4.29882 1.6351 5.953 6.16878 6.01346C7.61974 6.01346 9.78086 6.75651 11.2374 7.47464C12.9197 8.30442 16.2209 10.1723 19.8627 7.94924C19.8732 7.94293 19.8806 7.93325 19.8834 7.92217C19.8862 7.91108 19.8843 7.89944 19.878 7.88962Z" fill="#0C0C0C"/>
</svg>
