<svg width="170" height="34" viewBox="0 0 170 34" fill="none" xmlns="http://www.w3.org/2000/svg">
<path d="M42.7508 9.26287C38.239 9.26287 36.6448 11.6665 36.6448 13.8979C36.6448 17.1348 39.4402 17.7967 41.9416 18.3855C43.6826 18.8024 45.178 19.1699 45.178 20.396C45.178 21.0335 44.8101 22.0885 42.2844 22.0885C40.5678 22.064 38.9006 21.5237 37.4781 20.5429L36.3749 23.0447C37.6991 24.0746 40.004 24.7364 42.2603 24.7364C45.9876 24.7364 48.4151 22.9215 48.4151 20.126C48.3906 16.9628 45.57 16.3012 43.0937 15.7124C41.3526 15.2955 39.8572 14.9522 39.8572 13.726C39.8572 12.1076 41.8432 11.9356 42.726 11.9356C43.6823 11.8865 44.6145 12.0831 45.4727 12.5L47.8758 10.7344C46.3309 9.80262 44.5656 9.28739 42.7508 9.26287ZM82.0573 9.50691V24.4899H85.2938V20.2473H88.5062L91.3758 24.4899L94.8331 24.5139L91.5476 19.6341C93.4848 18.8003 94.6122 17.109 94.6122 14.8779C94.6122 11.5675 92.1601 9.50718 88.2364 9.50718L82.0573 9.50691ZM151.379 9.50691V24.4899H154.616V18.457H156.628L161.581 24.4899H165.749L159.129 16.7404L164.915 9.50691H161.213L156.406 15.9308H154.616V9.50691H151.379ZM67.7136 9.53015V24.5131H79.0424V22.0113H70.9499V18.1871H77.8651V15.6853H70.9499V12.0321H75.6581L79.0423 9.53024L67.7136 9.53015ZM122.369 9.53098L115.919 24.5139H119.205L120.505 21.4983H127.37L128.596 24.5139H132.006L125.679 9.53098H122.369ZM134.065 9.53098V24.5139H137.179V14.7058L144.609 24.5139H147.674V9.53098H144.584V19.3642L137.13 9.53098H134.065ZM51.4063 9.55339V24.5363H58.9101C62.6374 24.5363 64.6965 23.0899 64.6965 20.4906C64.721 18.6759 63.7409 17.3515 62.0734 16.7876H62.0726L61.9257 16.7386L62.0726 16.6647C63.2742 16.0271 64.0341 14.7521 63.9851 13.4034C63.9851 10.9757 61.9254 9.55345 58.4924 9.55345L51.4063 9.55339ZM101.45 9.55588V24.5388H108.954C112.681 24.5388 114.741 23.0923 114.741 20.493C114.741 18.7275 113.785 17.3781 112.117 16.8142L111.969 16.7403L112.116 16.6672C113.318 16.0297 114.078 14.7791 114.029 13.4059C114.029 10.9782 111.969 9.55596 108.536 9.55596L101.45 9.55588ZM54.6406 12.0304H58.0738C60.2562 12.0304 60.6976 13.036 60.6976 13.8698C60.6976 15.0714 59.7903 15.7084 58.0738 15.7084H54.6406V12.0304ZM108.118 12.032C110.276 12.032 110.742 13.0377 110.742 13.8715C110.742 15.073 109.835 15.7109 108.118 15.7109H104.685V12.0569H108.118V12.032ZM85.2894 12.0329H88.159C90.2434 12.0329 91.3714 13.0625 91.3714 14.9016C91.3714 16.7407 90.2434 17.7704 88.159 17.7704H85.2894V12.0329ZM123.985 12.9642L126.339 18.9724H121.484L123.985 12.9642ZM54.638 18.1853H58.6598C60.4989 18.1853 61.4305 18.8227 61.4305 20.0978C61.4305 21.3729 60.5234 22.0103 58.6598 22.0103H54.638V18.1853ZM104.682 18.187H108.703C110.543 18.187 111.474 18.8244 111.474 20.0995C111.474 21.3746 110.567 22.0128 108.703 22.0128H104.682V18.187Z" fill="#21A038"/>
<path d="M26.5404 9.40942C27.1289 10.1696 27.6193 11.0033 28.0362 11.8861L16.707 20.248L11.95 17.2563V13.6762L16.6828 16.6433L26.5404 9.40942Z" fill="#21A038"/>
<path d="M7.11917 17.0086C7.11917 16.837 7.11917 16.6898 7.1437 16.5182L4.27465 16.3711C4.27465 16.5673 4.25012 16.788 4.25012 16.9841C4.25012 20.4172 5.64786 23.5312 7.90385 25.7876L9.93913 23.7522C8.19807 22.0357 7.11917 19.657 7.11917 17.0086Z" fill="url(#paint0_linear_944_12438)"/>
<path d="M16.6825 7.44595C16.8541 7.44595 17.0013 7.44595 17.1729 7.47047L17.3201 4.60143C17.1239 4.60143 16.9032 4.5769 16.707 4.5769C13.274 4.5769 10.1599 5.97464 7.90356 8.23063L9.93885 10.2659C11.6554 8.52486 14.0587 7.44595 16.6825 7.44595Z" fill="url(#paint1_linear_944_12438)"/>
<path d="M16.6825 26.5754C16.5109 26.5754 16.3637 26.5754 16.1921 26.5509L16.0449 29.4199C16.2411 29.4199 16.4618 29.4444 16.658 29.4444C20.091 29.4444 23.2051 28.0467 25.4614 25.7907L23.4262 23.7554C21.7096 25.5209 19.3309 26.5754 16.6825 26.5754Z" fill="url(#paint2_linear_944_12438)"/>
<path d="M22.0774 9.11623L24.505 7.32613C22.3717 5.60964 19.6498 4.55518 16.6825 4.55518V7.42422C18.6933 7.44875 20.5569 8.06181 22.0774 9.11623Z" fill="url(#paint3_linear_944_12438)"/>
<path d="M29.1393 17.0086C29.1393 16.2484 29.0657 15.5127 28.9431 14.7771L26.2703 16.7634V17.0086C26.2703 19.8286 25.0442 22.3542 23.1069 24.0955L25.0442 26.2289C27.5454 23.9729 29.1393 20.6627 29.1393 17.0086Z" fill="#21A038"/>
<path d="M16.6825 26.5752C13.8625 26.5752 11.3369 25.3491 9.59565 23.4119L7.46228 25.3491C9.74279 27.8748 13.0285 29.4442 16.6827 29.4442L16.6825 26.5752Z" fill="url(#paint4_linear_944_12438)"/>
<path d="M10.2825 9.9237L8.34525 7.79028C5.81952 10.0708 4.25012 13.3565 4.25012 17.0102H7.11917C7.11917 14.2148 8.34525 11.6649 10.2825 9.9237Z" fill="url(#paint5_linear_944_12438)"/>
<defs>
<linearGradient id="paint0_linear_944_12438" x1="7.59703" y1="25.4549" x2="4.66841" y2="16.9895" gradientUnits="userSpaceOnUse">
<stop offset="0.1444" stop-color="#F2E913"/>
<stop offset="0.3037" stop-color="#E7E518"/>
<stop offset="0.5823" stop-color="#CADB26"/>
<stop offset="0.891" stop-color="#A3CD39"/>
</linearGradient>
<linearGradient id="paint1_linear_944_12438" x1="8.70974" y1="7.89572" x2="16.1496" y2="5.06066" gradientUnits="userSpaceOnUse">
<stop offset="0.0592" stop-color="#0FA8E0"/>
<stop offset="0.5385" stop-color="#0099F9"/>
<stop offset="0.9234" stop-color="#0291EB"/>
</linearGradient>
<linearGradient id="paint2_linear_944_12438" x1="15.8778" y1="27.0082" x2="24.7453" y2="25.0042" gradientUnits="userSpaceOnUse">
<stop offset="0.1226" stop-color="#A3CD39"/>
<stop offset="0.2846" stop-color="#86C339"/>
<stop offset="0.8693" stop-color="#21A038"/>
</linearGradient>
<linearGradient id="paint3_linear_944_12438" x1="16.0877" y1="6.39016" x2="23.462" y2="8.66562" gradientUnits="userSpaceOnUse">
<stop offset="0.0566" stop-color="#0291EB"/>
<stop offset="0.79" stop-color="#0C8ACB"/>
</linearGradient>
<linearGradient id="paint4_linear_944_12438" x1="8.18123" y1="25.8215" x2="16.0997" y2="28.7812" gradientUnits="userSpaceOnUse">
<stop offset="0.1324" stop-color="#F2E913"/>
<stop offset="0.2977" stop-color="#EBE716"/>
<stop offset="0.5306" stop-color="#D9E01F"/>
<stop offset="0.8023" stop-color="#BBD62D"/>
<stop offset="0.9829" stop-color="#A3CD39"/>
</linearGradient>
<linearGradient id="paint5_linear_944_12438" x1="6.43075" y1="17.3618" x2="9.59738" y2="9.12465" gradientUnits="userSpaceOnUse">
<stop offset="0.0698" stop-color="#A3CD39"/>
<stop offset="0.2599" stop-color="#81C55F"/>
<stop offset="0.9216" stop-color="#0FA8E0"/>
</linearGradient>
</defs>
</svg>
