<svg width="54" height="33" viewBox="0 0 54 33" fill="none" xmlns="http://www.w3.org/2000/svg">
<g clip-path="url(#clip0_944_12513)">
<mask id="mask0_944_12513" style="mask-type:luminance" maskUnits="userSpaceOnUse" x="-33" y="-23" width="265" height="374">
<path d="M-32.5382 -22.7632H231.513V350.779H-32.5382V-22.7632Z" fill="white"/>
</mask>
<g mask="url(#mask0_944_12513)">
<path fill-rule="evenodd" clip-rule="evenodd" d="M10.7406 26.3231C14.2858 26.5681 18.1669 24.6398 18.1214 22.176C18.0969 19.7157 14.6848 18.0954 11.6925 17.8714C8.69682 17.6754 5.50511 18.4733 5.50511 18.4733C5.28463 18.5153 4.84017 18.6483 4.72818 18.6728C4.66519 18.6728 4.68269 18.3403 4.72818 18.2948C5.21814 17.7384 8.32235 16.699 12.557 16.699C17.215 16.699 22.3351 18.1829 22.3351 22.064C22.3351 25.9241 15.8397 27.212 15.8397 27.212C16.5886 27.2575 17.4985 27.366 20.3612 28.4544C23.245 29.5428 23.9974 30.0713 27.6301 31.1142C31.2907 32.1606 35.8123 30.4072 35.8123 30.4072C33.9715 31.4046 32.1551 32.4475 28.4945 32.5595C24.8408 32.6925 19.5423 30.2742 16.991 29.2768C14.4433 28.2794 11.983 27.5025 11.983 27.5025C1.05002 27.59 0.0316162 21.9765 0.0316162 21.9765H3.4648C3.4018 25.0177 7.19195 26.0816 10.7406 26.3231ZM29.9608 26.0151H31.3152V26.5681H24.1094V26.0151H25.4603C26.0342 26.0151 26.0797 25.8821 26.0797 25.4832V19.1593C26.0797 18.2493 26.1042 17.9414 25.7052 17.9414H24.0849V17.2729H31.3362V17.9414H29.7194C29.3169 17.9414 29.3414 18.2493 29.3414 19.1593V25.4832C29.3414 25.8821 29.3834 26.0151 29.9608 26.0151ZM45.3664 17.4759C43.4416 17.4759 37.9856 18.3193 37.9856 21.5565C37.9856 24.7937 42.8852 26.2601 46.8538 25.9696C50.8434 25.7037 53.9476 24.3493 53.9476 24.3493L53.9721 24.6188C51.1759 26.1726 47.4102 27.233 43.5501 27.233C39.7144 27.233 33.6635 25.9486 33.6635 21.777C33.6635 17.6089 38.3426 16.6745 42.3567 16.5205C46.3673 16.363 50.8434 17.1644 50.8434 17.1644L51.5119 17.8714C50.9309 17.7209 47.8967 17.4759 45.3664 17.4759Z" fill="#BC1D50"/>
<path fill-rule="evenodd" clip-rule="evenodd" d="M22.9929 3.43506C19.9097 3.43506 16.8055 3.85502 13.8343 4.74394C9.15869 6.11931 4.7246 8.57958 0.934448 12.1073L1.26692 12.2857L1.64138 12.5062C9.60315 5.1849 20.4661 3.36856 29.8418 7.47019C31.1926 8.06863 32.505 8.75807 33.7439 9.60149L39.9943 8.3591C34.8078 5.09741 28.9109 3.45606 22.9929 3.43506Z" fill="#999CA0"/>
<path d="M1.69397 12.5272L2.4674 12.9507C9.31976 6.80178 17.5475 5.18493 25.7507 8.91208L29.8944 7.49121C20.5152 3.38609 9.65573 5.20592 1.69397 12.5272Z" fill="#BC1D50"/>
<path d="M0.251953 11.7293L0.983386 12.1283C4.77703 8.57959 9.18663 6.14031 13.8622 4.76494C16.8579 3.87952 19.9621 3.45606 23.0418 3.45606C23.6041 3.45606 24.1594 3.47123 24.7077 3.50156C30.0482 3.80953 35.3257 5.42988 40.0468 8.38011C42.0871 9.66799 44.0399 11.2183 45.8142 13.0172L49.6499 12.2402L53.8845 11.3723C39.4938 -3.11283 14.9506 -2.3814 0.251953 11.7293Z" fill="#BFC2C4"/>
</g>
</g>
<defs>
<clipPath id="clip0_944_12513">
<rect width="54" height="31.7421" fill="white" transform="translate(0 0.824463)"/>
</clipPath>
</defs>
</svg>
