<svg width="123" height="34" viewBox="0 0 123 34" fill="none" xmlns="http://www.w3.org/2000/svg">
<path d="M40.1246 7.28889C38.8281 6.757 37.4651 6.39133 36.2351 6.39133C34.44 6.39133 33.5421 6.79025 33.5421 7.45511C33.5421 9.44971 41.5541 7.85403 41.5541 12.0759C41.5541 13.8378 39.9251 15.1675 36.6008 15.1675C34.6398 15.1675 33.1103 14.7686 31.3484 13.8046L32.0797 12.2421C33.6089 13.1065 35.0381 13.4721 36.6008 13.4721C38.5622 13.4721 39.5927 12.907 39.5927 12.0759C39.5927 9.91511 31.5811 11.5108 31.5811 7.55484C31.5811 5.85943 33.2097 4.66268 36.1687 4.66268C37.9305 4.66268 39.4265 5.0616 40.8227 5.7597L40.1246 7.28889ZM49.0338 15.234C45.8421 15.234 43.1826 13.1065 43.1826 9.91511C43.1826 6.757 45.8421 4.59619 49.0338 4.59619C52.2584 4.59619 54.8514 6.757 54.8514 9.91511C54.8846 13.1065 52.2584 15.234 49.0338 15.234ZM49.0338 6.32484C46.7068 6.32484 45.1111 7.88727 45.1111 9.91511C45.1111 11.9762 46.6403 13.5386 49.0338 13.5386C51.4273 13.5386 52.9233 11.9762 52.9233 9.91511C52.9565 7.88727 51.4273 6.32484 49.0338 6.32484ZM62.4973 15.234C59.1394 15.234 56.6133 13.1065 56.6133 9.91511C56.6133 6.79025 59.173 4.59619 62.4973 4.59619C64.4919 4.59619 65.8881 5.16133 67.1846 6.09214L66.1873 7.55484C65.2565 6.85673 64.093 6.32484 62.5641 6.32484C60.1041 6.32484 58.5749 7.88727 58.5749 9.88187C58.5749 11.9429 60.1041 13.4721 62.5641 13.4721C64.0933 13.4721 65.3233 12.9735 66.2541 12.2754L67.2514 13.7381C65.9878 14.7021 64.4919 15.234 62.4973 15.234ZM69.146 4.96187H71.1406V14.9348H69.146V4.96187ZM73.8 14.9348V4.96187H83.1081V6.62403H75.7946V8.95106H81.446V10.6132H75.7946V13.2727H83.4406V14.9348H73.8ZM90.4216 6.62403V14.9348H88.427V6.62403H84.4378V4.96187H94.4108V6.62403H90.4216ZM96.073 14.9348V4.96187H105.049V6.62403H97.7351V8.95106H103.386V10.6132H97.7351V13.2727H105.381V14.9348H96.073ZM37.0662 26.8359C38.0968 26.8359 39.227 26.6032 39.8919 26.2375V23.2457H41.8865V27.2016C40.5568 28.0659 38.7949 28.5646 37.0662 28.5646C33.7083 28.5646 31.1489 26.437 31.1489 23.2457C31.1489 20.1208 33.7083 17.96 37.0326 17.96C38.9611 17.96 40.4235 18.4922 41.6867 19.4559L40.6894 20.9186C39.7586 20.2205 38.5951 19.7219 37.0662 19.7219C34.6062 19.6554 33.077 21.2511 33.077 23.2457C33.077 25.3732 34.6062 26.8359 37.0662 26.8359ZM44.2135 28.2321V18.2592H53.5216V19.9213H46.2081V22.2484H51.8595V23.9105H46.2081V26.57H53.8541V28.2321H44.2135ZM57.1784 28.2321H55.5162V18.2592H57.4111L63.96 25.8386C63.8603 23.9438 63.7938 22.4146 63.7938 20.9186V18.2592H65.7884V28.2321H63.7938L57.2781 20.7192L57.1784 20.7524C57.2449 22.2484 57.1784 24.8746 57.1784 25.7057V28.2321ZM68.4811 28.2321V18.2592H77.4568V19.9213H70.1433V22.2484H75.7946V23.9105H70.1433V26.57H77.7892V28.2321H68.4811ZM84.6373 24.5754H81.7784V28.2321H79.7838V18.2592H86.233C88.3605 18.2592 89.6903 19.5889 89.6903 21.4838C89.6903 23.2786 88.3938 24.3094 86.7981 24.5421L89.79 28.265H87.463L84.6373 24.5754ZM86.0335 22.9132C87.197 22.9132 87.8619 22.3148 87.8619 21.4505C87.8619 20.4868 87.2968 19.9213 86.233 19.9213H81.7784V22.9132H86.0335ZM93.613 25.9051L92.4495 28.2321H90.4216L95.3084 18.2592H97.2694L102.156 28.2321H100.162L98.9981 25.9051H93.613ZM94.3776 24.2429H98.2338L96.3057 20.1873L94.3776 24.2429ZM103.719 28.2321V18.2592H105.381V26.57H112.03V28.2321H103.719ZM113.359 28.2321V18.2592H122.668V19.9213H115.354V22.2484H121.005V23.9105H115.354V26.57H123V28.2321H113.359Z" fill="#231F20"/>
<path d="M0 4.62939H24.2676V16.9294H0V4.62939Z" fill="#E90031"/>
<path d="M0 16.5969H24.2676V28.5645H0V16.5969Z" fill="#231F20"/>
<path d="M4.32166 15.9321H19.946V17.2619H4.32166V15.9321Z" fill="white"/>
</svg>
