<svg width="120" height="34" viewBox="0 0 120 34" fill="none" xmlns="http://www.w3.org/2000/svg">
<g clip-path="url(#clip0_944_12450)">
<path fill-rule="evenodd" clip-rule="evenodd" d="M37.1232 15.7377L37.5675 14.1512L35.9175 14.2147C35.7906 14.2147 34.8387 14.2147 33.8234 13.5167C33.8869 13.5167 33.9503 13.5167 34.0772 13.5167C35.0926 13.5167 35.981 12.9455 36.4252 12.0571L37.1232 10.5341C36.2348 10.5341 35.4099 10.4072 35.4099 10.4072C35.4099 10.4072 34.7753 10.3437 34.0772 9.58223C33.5696 9.07456 32.935 8.75727 32.2369 8.75727C31.9197 8.75727 31.6658 8.82073 31.412 8.88419C31.4754 8.75727 31.4754 8.63035 31.5389 8.50344C31.7927 7.04389 30.8409 5.9651 30.8409 5.9651L29.6351 4.44209L28.8736 6.21893C28.8736 6.21893 28.6833 6.59968 28.366 6.85352C28.2391 6.34585 27.9852 5.71126 27.4776 5.14014C26.4622 4.06134 25.1931 3.93443 24.5585 3.93443C24.2412 3.93443 24.0508 3.99788 23.9873 3.99788L22.5278 4.31518C22.5913 3.93443 22.8451 3.42676 23.0989 2.91909L23.9239 1.64992L21.8932 1.90375L21.2586 0.507668L20.0529 1.26917L18.8472 0L17.705 1.14225L16.4358 0.507668L15.8012 1.90375L13.7705 1.64992L14.5955 2.91909C14.9762 3.42676 15.1032 3.99788 15.1666 4.31518L13.7705 3.99788H13.7071C13.6436 3.99788 13.3898 3.93443 13.1359 3.93443C12.5014 3.93443 11.2956 4.1248 10.2169 5.14014C9.70918 5.71126 9.39189 6.28239 9.32843 6.85352C8.94768 6.66314 8.82077 6.28239 8.82077 6.28239L8.05926 4.50555L6.85355 6.02856C6.66318 6.21893 5.96513 7.23427 6.15551 8.5669C6.15551 8.69381 6.21897 8.82073 6.28243 8.94765C6.02859 8.75727 5.77476 8.69381 5.45747 8.69381C4.75942 8.69381 4.12484 9.0111 3.61717 9.51877C2.91913 10.2803 2.28454 10.3437 2.28454 10.3437C2.28454 10.3437 1.64996 10.4706 0.571163 10.4706L1.26921 12.0571C1.64996 12.9455 2.60183 13.5167 3.61717 13.5167C3.68063 13.5167 3.74409 13.5167 3.871 13.5167C2.91913 14.2147 1.96725 14.2147 1.84033 14.2147L0.126953 14.1512L0.634621 15.7377C0.888455 16.5627 1.71342 17.8953 3.29988 18.0222C3.1095 18.7837 2.72875 19.6087 1.90379 19.926L0.634621 20.3702L1.26921 21.5124C1.64996 22.147 2.53838 22.8451 3.80755 22.8451C4.12484 22.8451 4.31521 22.8451 4.63251 22.7816C4.69596 23.0989 4.75942 23.3527 4.88634 23.67C5.26709 24.7488 4.9498 25.5738 4.9498 25.5738L4.37867 26.8429L5.58438 27.2871C5.58438 27.2871 5.96513 27.4141 6.53626 27.4141C6.79009 27.4141 6.98047 27.4141 7.17085 27.3506C7.36122 27.2871 7.48814 27.2871 7.61505 27.2237C7.80543 27.541 7.99581 27.7948 8.24964 28.1121C9.13806 29.0005 10.3438 29.4447 11.8668 29.4447H12.9456L10.6611 30.3966L12.4379 31.2216C13.0725 31.5389 13.834 31.9196 14.5955 32.1735L14.3417 32.7446L14.9128 33.0619C14.9762 33.0619 16.1185 33.5695 18.0222 33.6965C18.0222 33.6965 18.4665 33.6965 18.7203 33.6965C18.9741 33.6965 19.4183 33.6965 19.4183 33.6965C21.3221 33.5695 22.4643 33.0619 22.5278 33.0619L23.0989 32.7446L22.8451 32.1735C23.6066 31.8562 24.4316 31.5389 25.0027 31.2216L26.7161 30.3966L24.4316 29.4447H25.5103C27.0968 29.4447 28.3025 29.0005 29.1275 28.1121C29.3813 27.8583 29.5717 27.6044 29.7621 27.2237C29.889 27.2871 30.0794 27.3506 30.2063 27.3506C30.4601 27.4141 30.587 27.4141 30.8409 27.4141C31.3485 27.4141 31.7927 27.2871 31.7927 27.2871L33.1254 26.9064L32.5542 25.7007C32.5542 25.6372 32.1735 24.8757 32.6177 23.7969C32.7446 23.4796 32.8081 23.2258 32.8715 22.9085C33.1254 22.972 33.3792 22.972 33.6965 22.972C35.283 22.972 36.1079 21.8932 36.2348 21.5759L36.8694 20.4336L35.6637 19.926C34.7753 19.5452 34.458 18.7837 34.2676 18.0222C36.0445 17.8318 36.8694 16.4992 37.1232 15.7377Z" fill="#FFFFFE"/>
<path fill-rule="evenodd" clip-rule="evenodd" d="M18.8471 4.823C17.578 4.823 16.5626 5.20375 16.3723 5.77488L18.8471 6.79021L21.3855 5.77488C21.1316 5.20375 20.1163 4.823 18.8471 4.823Z" fill="#FFFFFE"/>
<path fill-rule="evenodd" clip-rule="evenodd" d="M18.9106 30.7773C18.0857 30.7773 17.0069 30.5869 16.4357 30.46L15.8011 32.1733C16.1819 32.3637 17.578 32.5541 18.8472 32.5541C20.1163 32.5541 21.449 32.2368 21.8932 32.1733L21.2586 30.46C20.7509 30.5869 19.6721 30.7773 18.9106 30.7773Z" fill="#FFFFFE"/>
<path fill-rule="evenodd" clip-rule="evenodd" d="M23.6066 29.064C23.1624 29.3813 22.0836 29.6986 21.5125 29.9524L22.0201 31.3485C22.972 31.0946 23.7335 30.7773 24.3681 30.4601L23.2893 30.0793L23.6066 29.064Z" fill="#FFFFFE"/>
<path fill-rule="evenodd" clip-rule="evenodd" d="M14.0243 29.064L14.3416 30.1428L13.2628 30.4601C13.8974 30.8408 14.6589 31.0946 15.6108 31.3485L16.1184 29.9524C15.5473 29.6986 14.532 29.3178 14.0243 29.064Z" fill="#FFFFFE"/>
<path fill-rule="evenodd" clip-rule="evenodd" d="M18.8472 3.17289C19.8625 3.17289 20.7509 3.42672 21.5124 3.80747C21.5759 3.55364 21.7028 3.2998 21.8297 2.98251L21.5124 3.04597L21.1951 3.10943L21.0682 2.79214L20.6875 1.96718L19.9894 2.34793L19.6721 2.47484L19.4818 2.34793L18.7203 1.58643L17.9588 2.34793L17.7049 2.60176L17.3876 2.47484L16.8165 2.09409L16.4358 2.91905L16.4992 3.17289L16.1819 3.10943L15.8646 3.04597C15.9915 3.36326 16.1185 3.6171 16.1819 3.87093C16.88 3.42672 17.8318 3.17289 18.8472 3.17289Z" fill="#FFFFFE"/>
<path fill-rule="evenodd" clip-rule="evenodd" d="M33.7599 12.2474C33.8868 12.3109 34.0138 12.3109 34.1407 12.3109C34.6484 12.3109 35.2195 11.9301 35.4099 11.5494C35.4099 11.5494 34.3945 11.4859 33.3157 10.4071C32.935 10.0263 32.6177 9.96289 32.2369 9.96289C31.7927 9.96289 31.3485 10.2167 31.3485 10.2167C32.6811 10.9148 32.9984 12.057 33.7599 12.2474Z" fill="#FFFFFE"/>
<path fill-rule="evenodd" clip-rule="evenodd" d="M3.5537 12.3743C3.68061 12.3743 3.80753 12.3743 3.93445 12.3109C4.69595 12.057 5.01324 10.9148 6.28241 10.2167C6.28241 10.2167 5.90166 9.96289 5.39399 9.96289C5.0767 9.96289 4.69595 10.0898 4.3152 10.4071C3.23641 11.4859 2.22107 11.5494 2.22107 11.5494C2.4749 11.9936 2.98257 12.3743 3.5537 12.3743Z" fill="#FFFFFE"/>
<path fill-rule="evenodd" clip-rule="evenodd" d="M33.3157 20.3702C32.3004 19.8625 31.6658 18.5299 31.5389 18.0222C31.3485 20.624 30.0793 22.5278 28.5563 24.2411C27.7948 25.193 27.4775 26.018 27.4775 26.018C27.4775 26.018 27.6679 25.0026 28.3025 24.2411C29.6986 22.5278 31.0312 20.4336 31.1581 18.0222C31.2216 16.3088 30.7774 14.9127 30.0793 13.8339C30.4601 14.9762 30.4601 16.4357 29.064 17.7684C29.064 17.7684 31.6023 14.6589 27.9852 11.5494C26.5257 10.3437 24.9392 9.64569 24.1142 9.0111C27.0333 9.96298 28.4929 8.88419 28.4929 8.88419C27.541 9.70915 26.3353 9.70915 25.5738 9.58223C25.8276 9.70915 25.9545 9.77261 26.2084 9.96298C28.6833 11.2956 30.9043 13.5167 31.2851 16.6261C32.0466 19.6087 33.3157 20.3702 33.3157 20.3702ZM34.0772 16.88C35.5368 16.88 35.981 15.4204 35.981 15.4204C35.7271 15.4204 33.6965 15.357 32.2369 13.5167C31.2851 12.3109 30.4601 11.2322 29.0005 10.8514H28.8102L28.7467 10.661C28.6833 10.4072 28.8736 10.2168 29.1909 9.96298C31.3485 8.56689 29.889 6.7266 29.889 6.7266C29.889 6.7266 29.3178 8.12269 27.9218 8.12269C27.8583 8.12269 27.8583 8.12269 27.7948 8.12269C27.6045 8.12269 27.4775 8.12269 27.3506 8.05923L27.0968 7.99577C27.0968 7.99577 27.4775 6.91697 26.5891 5.9651C25.8276 5.26705 25.0027 5.14014 24.495 5.14014C24.2412 5.14014 24.1142 5.20359 24.1142 5.20359C24.5585 5.83818 24.9392 6.85352 24.4315 7.4881C23.9873 7.99577 22.7816 8.05923 22.7816 8.88419C22.7816 9.26494 23.0989 9.64569 23.67 9.96298C25.4469 11.0418 27.0968 12.5013 27.7948 14.4685C28.6833 16.88 27.6679 18.4664 26.2718 19.4183C26.2718 19.4183 26.716 19.799 27.3506 19.8625C27.4775 19.8625 27.6045 19.8625 27.7314 19.8625C29.1275 19.8625 29.8255 19.2279 29.8255 19.2279C29.8255 19.2279 29.6986 20.1163 29.0005 20.9413C28.366 21.7028 27.4775 22.147 26.1449 22.147C26.1449 22.147 26.0815 22.7816 26.6526 23.2893C27.0333 23.67 27.8583 23.7335 27.8583 23.7335C27.8583 23.7335 26.2084 24.1142 26.0815 26.4622C25.9545 27.7314 25.7007 28.239 25.7007 28.239C29.4448 28.239 29.3813 25.0026 29.3813 25.0026C29.3813 25.0026 29.6351 25.9545 30.6505 26.2084C30.7774 26.2718 30.9043 26.2718 31.0312 26.2718C31.412 26.2718 31.6658 26.2084 31.6658 26.2084C31.6658 26.2084 31.1581 25.0661 31.6658 23.4162C32.11 22.0836 32.0466 21.0682 32.0466 21.0682C32.0466 21.0682 32.5542 21.8297 33.8234 21.8297C34.9022 21.8297 35.3464 21.0048 35.3464 21.0048C32.8081 19.926 33.0619 16.6261 33.0619 16.6261C33.0619 16.6261 33.4426 16.88 34.0772 16.88Z" fill="#FFFFFE"/>
<path fill-rule="evenodd" clip-rule="evenodd" d="M9.07456 24.3046C7.55156 22.5278 6.28239 20.6875 6.09201 18.0857C5.90164 18.5299 5.26705 19.8625 4.31518 20.4336C4.31518 20.4336 5.58435 19.6721 6.15547 16.6261C6.53622 13.5167 8.75727 11.2956 11.2322 9.96298C11.486 9.83606 11.6764 9.70915 11.8667 9.58223C11.1052 9.70915 9.89952 9.70915 8.94765 8.88419C8.94765 8.88419 10.4072 9.96298 13.3263 9.0111C12.5013 9.51877 10.9149 10.2803 9.45531 11.5494C5.83818 14.7224 8.37652 17.7684 8.37652 17.7684C7.10735 16.4357 7.04389 14.9762 7.36118 13.8339C6.66314 14.9127 6.28239 16.3723 6.28239 18.0222C6.40931 20.4971 7.74193 22.5912 9.13802 24.2411C9.83606 25.0661 9.96298 26.018 9.96298 26.018C9.96298 26.018 9.89952 25.193 9.07456 24.3046ZM9.70915 23.7335C9.70915 23.7335 10.5976 23.6066 10.9149 23.2893C11.486 22.7816 11.4225 22.147 11.4225 22.147C10.0899 22.147 9.26494 21.7028 8.5669 20.9413C7.86885 20.1163 7.74193 19.2279 7.74193 19.2279C7.74193 19.2279 8.43998 19.8625 9.83607 19.8625C9.96298 19.8625 10.0899 19.8625 10.2168 19.8625C10.8514 19.799 11.2956 19.4183 11.2956 19.4183C9.83606 18.4664 8.82073 16.88 9.70915 14.4685C10.4072 12.5648 12.184 11.1052 13.8339 9.96298C14.4051 9.58223 14.7224 9.20148 14.7224 8.88419C14.7224 8.05923 13.5801 8.05923 13.0724 7.4881C12.5648 6.85352 12.8821 5.83818 13.3897 5.20359C13.3897 5.20359 13.1994 5.14014 13.009 5.14014C12.5648 5.14014 11.6764 5.26705 10.9783 6.02856C10.0264 7.04389 10.4706 8.05923 10.4706 8.05923L10.2168 8.12269C10.0264 8.18614 9.89952 8.18614 9.77261 8.18614C9.70915 8.18614 9.70915 8.18614 9.64569 8.18614C8.31306 8.18614 7.67848 6.79006 7.67848 6.79006C7.67848 6.79006 6.21893 8.56689 8.37652 10.0264C8.75727 10.2803 8.88419 10.4706 8.82073 10.7245L8.88419 10.7879H8.69381C7.17081 11.1687 6.34585 12.2475 5.45743 13.4532C3.99788 15.2935 1.96721 15.357 1.71338 15.357C1.71338 15.357 2.15759 16.8165 3.55367 16.8165H3.61713C4.25172 16.8165 4.56901 16.4992 4.56901 16.4992C4.56901 16.4992 4.82284 19.8625 2.28451 20.8778C2.28451 20.8778 2.72871 21.7028 3.80751 21.7028C5.07668 21.7028 5.58435 20.9413 5.58435 20.9413C5.58435 20.9413 5.52089 21.9566 5.9651 23.2893C6.47277 24.9392 5.9651 26.0814 5.9651 26.0814C5.9651 26.0814 6.28239 26.1449 6.59968 26.1449C6.7266 26.1449 6.91697 26.1449 6.98043 26.0814C8.05923 25.8276 8.2496 24.8757 8.2496 24.8757C8.2496 24.8757 8.12268 28.1121 11.9302 28.1121C11.9302 28.1121 11.5494 27.6679 11.5494 26.3353C11.2956 24.0508 9.70915 23.7335 9.70915 23.7335Z" fill="#FFFFFE"/>
<path fill-rule="evenodd" clip-rule="evenodd" d="M18.0222 11.8667H19.7991V12.4378C19.5452 12.184 19.1645 12.2474 19.1645 12.2474V13.1359C19.1645 13.1359 19.1645 13.5166 19.3548 13.7705H18.403C18.5933 13.5801 18.5933 13.1359 18.5933 13.1359V12.2474C18.5933 12.2474 18.2126 12.184 17.9588 12.4378L18.0222 11.8667ZM16.1185 11.9302C16.1819 11.9936 16.2454 12.0571 16.3088 12.184C16.3088 12.184 16.3088 12.2474 16.3723 12.2474C16.4358 12.3109 16.4992 12.4378 16.5627 12.5013C16.5627 12.5013 16.5627 12.5647 16.6261 12.5647C16.6896 12.6917 16.7531 12.7551 16.8165 12.882C17.3242 13.8339 18.2126 14.405 18.9741 14.405C19.7356 14.405 20.624 13.8339 21.1317 12.882C21.1951 12.7551 21.2586 12.6282 21.3221 12.5647C21.3221 12.5647 21.3221 12.5647 21.3221 12.5013C21.3855 12.4378 21.449 12.3109 21.5124 12.2474C21.5124 12.2474 21.5124 12.184 21.5759 12.184C21.6394 12.1205 21.7028 11.9936 21.7663 11.9302C21.7663 11.9302 21.7663 11.9302 21.8297 11.8667C22.147 11.5494 22.4009 11.359 22.9085 11.2321L22.7181 11.1052L21.9566 10.661L21.0682 10.1533L18.9741 11.2956L16.8165 10.1533L16.055 10.5975L15.23 11.1687L15.0397 11.2956C15.4204 11.4225 15.7377 11.6129 16.1185 11.9302C16.055 11.9302 16.055 11.9302 16.1185 11.9302Z" fill="#FFFFFE"/>
<path fill-rule="evenodd" clip-rule="evenodd" d="M18.2126 7.99587V8.56699L18.0856 8.50354C18.0856 8.50354 17.8953 8.44008 17.6414 8.18624C17.1338 7.86895 17.1338 7.55166 17.1338 7.55166L18.2126 7.99587ZM18.6568 10.6611V7.10745L16.3723 6.34595L16.9434 9.77271L18.6568 10.6611Z" fill="#FFFFFE"/>
<path fill-rule="evenodd" clip-rule="evenodd" d="M19.5452 7.99587L20.624 7.61512C20.624 7.61512 20.624 7.99587 20.1798 8.31316C19.8625 8.56699 19.7356 8.56699 19.7356 8.63045L19.6087 8.69391V7.99587H19.5452ZM20.6875 9.77271L21.2586 6.34595L18.9741 7.10745V10.6611L20.6875 9.77271Z" fill="#FFFFFE"/>
<path fill-rule="evenodd" clip-rule="evenodd" d="M15.4204 18.9106C15.6742 18.974 15.8646 19.0375 16.055 19.0375V18.974C16.055 18.9106 16.055 18.9106 16.1184 18.8471C16.1819 18.6567 16.1819 18.4664 16.1819 18.276C16.055 18.2125 15.9281 18.0856 15.8646 17.9587C15.8646 17.8318 15.7377 17.7683 15.5473 17.7683C15.2935 17.7683 15.1031 17.8952 14.9762 17.9587C14.8493 18.4029 15.23 18.8471 15.4204 18.9106Z" fill="#FFFFFE"/>
<path fill-rule="evenodd" clip-rule="evenodd" d="M20.4337 17.0703C20.0529 17.5145 19.228 18.3395 19.1645 18.3395L19.101 18.4029L16.4992 18.3395C16.4992 18.5933 16.4358 18.7837 16.4358 18.9741V19.0375L19.5453 19.6087C19.926 19.3548 20.751 18.7202 21.1317 18.5299C20.8779 18.1491 20.8144 17.7049 20.8779 17.4511C20.6875 17.2607 20.5606 17.1338 20.4337 17.0703Z" fill="#FFFFFE"/>
<path fill-rule="evenodd" clip-rule="evenodd" d="M20.8144 13.8974C20.2432 14.4686 19.6721 14.7224 19.101 14.7859C18.9741 14.7859 18.9106 14.7859 18.7837 14.7859C18.6568 14.7859 18.5933 14.7859 18.4664 14.7859C18.3395 14.7859 18.276 14.7859 18.1491 14.7224C18.0856 14.8493 18.0856 15.1032 18.2126 15.4204C18.3395 15.6743 18.5933 15.8012 18.8471 15.9281L18.9741 15.9916V16.1185C18.9741 16.1819 18.9741 16.9435 19.8625 17.1338C19.9894 17.0069 20.1163 16.8165 20.2432 16.7531C20.0529 16.3723 20.1798 15.9281 20.4336 15.7377C20.4336 15.8012 20.3067 16.8165 21.1317 17.1338L21.2586 17.1973L21.1951 17.3242C21.1951 17.3877 20.8778 18.3395 21.8932 18.6568L22.0835 18.7203L22.0201 18.9107C22.0201 18.9741 21.6393 19.8625 22.4643 20.3068H24.368V18.7837C23.67 18.7203 23.3527 18.1492 23.2892 17.705C22.9719 17.6415 22.7181 17.5146 22.5277 17.3242C22.147 16.8165 22.4643 16.2454 22.4643 16.2454C22.4643 16.2454 22.4643 16.7531 22.7816 17.1338C22.972 17.3242 23.1623 17.4511 23.4162 17.4511H23.5431V17.578C23.5431 17.6415 23.6065 18.3395 24.3046 18.403V15.2301C24.3046 14.7859 24.4315 14.2147 24.6219 13.834L20.8144 13.8974Z" fill="#FFFFFE"/>
<path fill-rule="evenodd" clip-rule="evenodd" d="M15.6108 15.3571L15.5473 17.3243L15.8011 17.3877L16.3088 15.484L15.9915 14.9128L15.6108 15.3571Z" fill="#FFFFFE"/>
<path fill-rule="evenodd" clip-rule="evenodd" d="M16.8165 22.7182C16.753 22.7182 16.6896 22.6547 16.6896 22.5913C16.6896 22.5278 16.753 22.4643 16.8165 22.4643C16.8799 22.4643 16.9434 22.5278 16.9434 22.5913C16.9434 22.7182 16.8799 22.7182 16.8165 22.7182ZM21.7662 24.495C22.147 24.6219 22.2105 25.8276 22.845 25.9546C22.9085 25.9546 22.972 25.9546 23.0354 25.9546C23.2258 25.9546 23.3527 25.8911 23.4162 25.7007C23.4162 25.7007 23.0989 25.2565 22.9085 24.8758C22.5912 24.495 22.4008 23.9239 21.8297 23.9239H21.7662C21.5759 23.9239 21.449 24.0508 21.449 24.0508C21.1951 23.9239 21.0047 23.8604 20.8144 23.8604C20.4336 23.8604 20.1798 24.0508 20.0529 24.0508L18.7202 23.9239C18.5299 23.9239 18.3395 23.6701 18.3395 23.6066V23.5431C18.3395 23.4797 18.3395 23.4797 18.3395 23.4162C18.276 22.3374 17.5145 21.9567 17.2607 21.9567C17.2607 21.9567 17.3242 21.7663 17.1972 21.6394L16.8799 22.0201L15.9281 21.5759L16.5627 22.3374L16.055 22.972C15.9915 23.0355 15.9915 23.1624 15.9915 23.2258L16.2454 23.4797L16.5627 23.2893H16.6261C16.6896 23.2893 16.8799 23.2893 16.9434 23.2893C17.0703 23.2893 17.1972 23.2893 17.1972 23.1624C17.1338 23.5431 16.8165 24.2412 17.0069 24.7489L17.1972 25.1296L16.1184 24.9392L15.6108 25.8276C15.4204 26.1449 15.4204 26.3988 15.5473 26.5891L15.7377 26.843C15.7377 26.843 16.055 26.5257 16.1184 26.3988L16.1819 26.2084C16.1184 26.1449 16.1184 26.018 16.1819 25.9546L16.5627 25.4469L17.8318 25.7642L17.8953 25.6373C18.0222 25.4469 18.1491 25.4469 18.276 25.4469C18.3395 25.4469 18.4029 25.4469 18.4664 25.4469C18.7202 25.5104 19.101 25.5738 19.5452 25.5738C19.9894 25.5738 20.4336 25.5104 20.624 25.1931C21.0682 25.8911 22.0835 26.018 21.9566 26.3353L21.7028 27.541C21.8932 27.541 22.0835 27.541 22.147 27.4776L22.4008 26.2084C22.4008 26.0815 22.4643 25.8276 22.4643 25.8276C22.3374 25.7007 22.147 25.5104 22.0201 25.32C21.8297 24.9392 21.9566 24.8123 21.7662 24.3681C21.5759 24.5585 21.6393 24.495 21.7662 24.495Z" fill="#FFFFFE"/>
<path fill-rule="evenodd" clip-rule="evenodd" d="M15.0396 25.6373C15.0396 25.6373 15.4204 25.4469 15.4839 25.32L15.4204 25.1931C15.3569 25.0662 15.3569 25.0027 15.4839 24.9393L15.9281 24.5585L16.6896 24.7489C16.6896 24.7489 16.5626 24.5585 16.5626 24.3681L15.8646 24.2412L15.1666 24.622C14.8493 24.8758 14.7858 25.1931 14.9127 25.4469L15.0396 25.6373Z" fill="#FFFFFE"/>
<path fill-rule="evenodd" clip-rule="evenodd" d="M20.5605 27.668C20.6874 27.668 20.8778 27.668 21.0047 27.668C21.0047 27.668 21.3855 26.5257 21.3855 26.4623C21.1317 26.3354 20.6874 26.0815 20.4971 26.0181C20.624 26.2084 20.8778 26.3988 20.8778 26.5257L20.5605 27.668Z" fill="#FFFFFE"/>
<path fill-rule="evenodd" clip-rule="evenodd" d="M24.4315 20.6875H13.2628V24.8758C13.2628 26.5891 14.4685 27.6679 16.3723 27.6679C17.8953 27.6679 18.276 27.7314 18.9106 28.3025C19.2914 27.9218 19.6087 27.7949 20.3067 27.7314V27.6679L20.6875 26.5891L20.1163 25.8911C19.8625 25.9546 19.7356 26.018 19.3548 26.018C18.9741 26.018 18.6568 25.9546 18.276 25.8911C18.2126 25.8911 18.2126 25.8911 18.1491 25.8911C18.0857 25.8911 18.0857 25.8911 18.0857 25.8911L18.0222 26.018L17.8953 26.2718L17.578 26.2084L16.4992 25.8911L16.3088 26.1449L16.4357 26.2718L16.3723 26.5257C16.3088 26.7795 15.9915 27.0333 15.9915 27.0968L15.6742 27.4141L15.4204 27.0968L15.23 26.843C15.0397 26.5891 14.9762 26.3353 15.1031 25.9546L14.7858 26.0815L14.6589 25.7642L14.532 25.5103C14.3416 25.1296 14.4051 24.5585 14.9127 24.3046L15.8012 23.8604L16.6261 24.0508C16.6261 23.9873 16.6896 23.67 16.6896 23.67H16.6261L16.1819 23.8604L15.7377 23.5431C15.7377 23.5431 15.5473 23.3528 15.7377 23.1624L16.1819 22.5278L15.0397 21.0048L16.753 21.7028L16.88 21.5759L17.1338 21.2586L17.4511 21.5125C17.5145 21.5759 17.578 21.7028 17.578 21.7663C18.0222 21.9567 18.9106 22.5278 18.9741 23.4162L18.6568 23.5431C18.7202 23.6066 18.7837 23.67 18.7837 23.67L19.9894 23.797C20.0529 23.797 20.0529 23.797 20.1163 23.7335C20.3067 23.6701 20.4971 23.6066 20.7509 23.6066C21.0048 23.6066 21.1317 23.67 21.3855 23.797C21.449 23.797 21.5759 23.7335 21.7028 23.7335H21.7663C22.4008 23.7335 22.7816 24.1777 22.972 24.6219C23.0354 24.6854 23.0354 24.7488 23.0989 24.8123C23.3527 25.1931 23.6066 25.6373 23.6066 25.6373L23.7335 25.8911L23.4796 25.9546C23.3527 26.1449 23.1623 26.3353 22.845 26.3353C22.7816 26.3353 22.7181 26.3353 22.5912 26.3353C22.5278 26.3353 22.4643 26.2718 22.4008 26.2718C22.4008 26.3353 22.4008 26.3988 22.3374 26.5257L22.0835 27.6045C23.3527 27.2872 24.1777 26.3353 24.1777 24.9392L24.4315 20.6875Z" fill="#FFE52B"/>
<path fill-rule="evenodd" clip-rule="evenodd" d="M13.2628 20.3068H21.9567C21.5759 19.8626 21.5759 19.2914 21.6394 18.9107C21.5124 18.8472 21.3855 18.7838 21.2586 18.6569C20.8779 18.9107 19.8625 19.6722 19.6087 19.7991L19.6721 19.926L16.3088 19.2914H16.2454C16.1819 19.2914 16.055 19.2914 15.8646 19.2914C15.8012 19.4818 15.6743 19.5453 15.5473 19.5453H15.4839C15.357 19.5453 15.2935 19.4818 15.2301 19.4184C15.2301 19.2915 15.2301 19.228 15.2301 19.1645V19.1011C14.8493 18.8472 14.532 18.2761 14.7224 17.705V17.6415L14.7858 17.5781C14.7858 17.5781 14.8493 17.5146 14.9762 17.4512L14.5955 17.5146C14.4685 17.5146 14.4051 17.3877 14.4685 17.3242C14.4685 17.1973 14.5955 17.1339 14.6589 17.1973L15.2301 17.3242L15.2935 15.2301L16.1819 14.2782L16.6896 15.4205L16.1185 17.3877L16.6261 17.4512C16.7531 17.4512 16.8165 17.5781 16.7531 17.6415C16.7531 17.705 16.6896 17.7684 16.5627 17.7684H16.1185C16.1185 17.7684 16.1185 17.7684 16.1185 17.8319C16.1819 17.9588 16.2454 18.0223 16.3088 18.0223L18.8472 18.0857C18.9741 17.9588 19.2279 17.705 19.4818 17.4512C18.8472 17.1973 18.5934 16.6262 18.5299 16.3089C18.1491 16.1185 17.9588 15.9282 17.7684 15.6109C17.578 15.2301 17.6415 14.8494 17.7049 14.659C17.3242 14.5321 17.0069 14.2782 16.6261 13.9609H12.6917C12.8821 14.4051 13.009 14.9128 13.009 15.357V20.3068H13.2628Z" fill="#FFE52B"/>
<path fill-rule="evenodd" clip-rule="evenodd" d="M16.8165 22.4644C16.753 22.4644 16.6896 22.5278 16.6896 22.5913C16.6896 22.6547 16.753 22.7182 16.8165 22.7182C16.88 22.7182 16.9434 22.6547 16.9434 22.5913C16.9434 22.5278 16.88 22.4644 16.8165 22.4644Z" fill="#1A1919"/>
<path fill-rule="evenodd" clip-rule="evenodd" d="M21.9566 31.2851L21.449 29.889C22.0201 29.6986 23.0989 29.3179 23.5431 29.0006L23.2258 30.0794L24.3046 30.4601C23.7335 30.7774 22.9085 31.0312 21.9566 31.2851ZM18.8472 32.5542C17.6415 32.5542 16.2454 32.237 15.8012 32.1735L16.4358 30.4601C16.9434 30.6505 18.0222 30.7774 18.8472 30.7774H18.9106C19.6721 30.7774 20.7509 30.587 21.3221 30.4601L21.9566 32.1735C21.449 32.237 20.0529 32.5542 18.8472 32.5542ZM13.3263 30.3967L14.4051 30.0159L14.0243 29.0006C14.4685 29.3179 15.5473 29.6352 16.1185 29.889L15.6108 31.2851C14.7224 31.0312 13.9609 30.7774 13.3263 30.3967ZM24.3681 30.0794L23.7335 29.8255L23.9239 29.1909L24.1142 28.4929C24.1142 28.4929 22.972 29.1275 21.3855 29.5717C20.9413 29.6986 20.5606 29.7621 20.5606 29.7621V30.2063C20.5606 30.2063 19.6721 30.3967 18.7837 30.3967H18.7203C17.8318 30.3967 16.9434 30.2063 16.9434 30.2063V29.6986C16.9434 29.6986 16.5627 29.6352 16.1185 29.5082C14.532 29.064 13.3897 28.4294 13.3897 28.4294L13.5801 29.1275L13.7705 29.7621L13.1359 30.0159L12.4379 30.3332C13.2628 30.7139 14.3416 31.3485 15.4204 31.6024L15.1666 32.237C15.1666 32.237 16.4992 32.8081 18.6568 32.8081H18.7203C20.9413 32.8081 22.2105 32.237 22.2105 32.237L21.9566 31.6024C23.0354 31.2851 24.1142 30.7139 24.9392 30.3332L24.3681 30.0794Z" fill="#1A1919"/>
<path fill-rule="evenodd" clip-rule="evenodd" d="M16.1184 3.04605L16.4357 3.10951L16.5626 2.79222L16.9434 2.03072L17.6414 2.41147L17.9587 2.53838L18.9106 1.58651L19.6086 2.34801L19.8625 2.60184L20.1798 2.47493L20.8778 2.09418L21.2586 2.91914L21.3855 3.23643L21.5759 3.17297L21.8931 3.10951C21.7662 3.4268 21.6393 3.68064 21.5759 3.93447C20.8144 3.55372 19.8625 3.29989 18.9106 3.29989C17.8953 3.29989 17.0068 3.55372 16.2453 3.93447C16.1819 3.68064 16.055 3.4268 15.928 3.10951L16.1184 3.04605ZM18.8471 3.55372C20.1163 3.55372 21.1951 3.93447 21.7662 4.44214C21.7662 4.44214 21.9566 3.36334 22.5277 2.53838L21.4489 2.6653L20.9413 1.45959L19.8625 2.03072L18.7837 1.01538L17.7683 2.09418L16.6896 1.58651L16.1819 2.72876L15.1031 2.60184C15.6742 3.55372 15.8646 4.5056 15.8646 4.5056C16.4992 4.06139 17.5145 3.55372 18.8471 3.55372Z" fill="#1A1919"/>
<path fill-rule="evenodd" clip-rule="evenodd" d="M35.4098 21.0046C35.4098 21.0046 34.9656 21.8296 33.8868 21.8296C32.6811 21.8296 32.11 21.0681 32.11 21.0681C32.11 21.0681 32.1734 22.0834 31.7292 23.4161C31.2216 25.066 31.7292 26.2082 31.7292 26.2082C31.7292 26.2082 31.4119 26.2717 31.0946 26.2717C30.9677 26.2717 30.7774 26.2717 30.7139 26.2082C29.6351 25.9544 29.4447 25.0025 29.4447 25.0025C29.4447 25.0025 29.5716 28.2389 25.7641 28.2389H25.7007C25.7007 28.2389 26.0814 27.7947 26.0814 26.4621C26.2718 24.0507 27.8583 23.7334 27.8583 23.7334C27.8583 23.7334 26.9698 23.6064 26.6526 23.2892C26.0814 22.7815 26.1449 22.1469 26.1449 22.1469C27.4775 22.1469 28.3025 21.7027 29.0005 20.9412C29.6986 20.1162 29.8255 19.2278 29.8255 19.2278C29.8255 19.2278 29.1274 19.9259 27.7313 19.9259C27.6044 19.9259 27.4775 19.9259 27.3506 19.9259C26.716 19.8624 26.2718 19.4816 26.2718 19.4816C27.7313 18.5298 28.7467 16.9433 27.7948 14.5319C27.0968 12.6281 25.3199 11.1686 23.67 10.0263C23.0989 9.64558 22.7816 9.26483 22.7816 8.94754C22.7816 8.12258 23.9238 8.12258 24.4315 7.55145C24.9392 6.91687 24.6219 5.90153 24.1142 5.26695C24.1142 5.26695 24.3046 5.20349 24.495 5.20349C24.9392 5.20349 25.8276 5.3304 26.5256 6.09191C27.4775 7.10724 27.0333 8.12258 27.0333 8.12258L27.2871 8.18604C27.4775 8.24949 27.6044 8.24949 27.7313 8.24949C27.7948 8.24949 27.7948 8.24949 27.8583 8.24949C29.1909 8.24949 29.8255 6.85341 29.8255 6.85341C29.8255 6.85341 31.285 8.63024 29.1274 10.0898C28.7467 10.3436 28.6198 10.534 28.6832 10.7878L28.7467 10.9782H28.9371C30.4601 11.359 31.285 12.4378 32.1734 13.6435C33.633 15.4838 35.6637 15.5472 35.9175 15.5472C35.9175 15.5472 35.4733 17.0068 34.0772 17.0068H34.0137C33.3792 17.0068 33.0619 16.6895 33.0619 16.6895C33.0619 16.6895 32.8715 19.9893 35.4098 21.0046ZM34.1407 17.3241C35.854 17.3241 36.4252 15.5472 36.4252 15.5472L36.6155 14.9761H35.981C35.7271 14.9761 33.8868 14.9126 32.6177 13.1993L32.4907 13.0089C31.6023 11.9301 30.7774 10.8513 29.3178 10.4071C29.3813 10.3436 29.4447 10.3436 29.5082 10.2802C30.2697 9.7725 30.7139 9.20137 30.8408 8.43987C31.0312 7.36108 30.3331 6.53611 30.2697 6.47266L29.8255 5.90153L29.5082 6.59957C29.5082 6.66303 29.0005 7.74183 27.9217 7.74183H27.8583C27.7948 7.74183 27.7313 7.74183 27.6044 7.74183C27.6679 7.29762 27.541 6.47266 26.8429 5.77461C26.018 4.88619 25.0026 4.75928 24.4315 4.75928C24.1142 4.75928 23.9873 4.82274 23.9873 4.82274L23.3527 4.94965L23.7969 5.52078C24.1777 5.96499 24.4315 6.78995 24.1142 7.23416C23.9873 7.36107 23.7335 7.48799 23.5431 7.61491C23.0989 7.86874 22.4643 8.12258 22.4643 8.88408C22.4643 9.39175 22.845 9.96287 23.5431 10.3436C25.6372 11.6763 26.9064 13.0089 27.4775 14.5953C28.3659 16.9433 27.1602 18.2759 26.1449 18.974L25.5103 19.3547L25.8911 19.7355C25.9545 19.7989 26.4622 20.2431 27.2237 20.3066C27.4141 20.3066 27.541 20.3066 27.6044 20.3066C28.1121 20.3066 28.5563 20.2431 28.8736 20.1162C28.7467 20.3066 28.6198 20.497 28.4929 20.6239C27.8583 21.3854 27.0968 21.7027 25.9545 21.7027H25.5738V22.0834C25.5738 22.1469 25.5103 22.9719 26.2718 23.6064C26.3987 23.7334 26.5256 23.7968 26.6526 23.8603C26.1449 24.3045 25.6372 25.066 25.5738 26.3986C25.6372 27.5409 25.3834 27.9216 25.3834 27.9216L24.9392 28.6197H25.7641C27.0968 28.6197 28.1756 28.2389 28.9371 27.5409C29.3178 27.0967 29.6351 26.589 29.762 26.1448C30.0159 26.3352 30.2697 26.5255 30.7139 26.589C30.9043 26.6525 31.0312 26.6525 31.2216 26.6525C31.6023 26.6525 31.9196 26.589 31.9831 26.5255L32.4907 26.3986L32.2369 25.9544C32.2369 25.891 31.7927 24.8756 32.2369 23.4795C32.4273 22.9084 32.5542 22.3373 32.6177 21.8931C32.9984 22.0834 33.3792 22.2104 33.9503 22.2104C35.2195 22.2104 35.7906 21.195 35.854 21.195L36.1079 20.7508L35.5367 20.6239C33.9503 19.9893 33.633 18.2125 33.5695 17.3241C33.6964 17.3241 33.8868 17.3875 34.0137 17.3875L34.1407 17.3241Z" fill="#1A1919"/>
<path fill-rule="evenodd" clip-rule="evenodd" d="M32.2369 9.96299C32.5542 9.96299 32.935 10.0899 33.3157 10.4072C34.3945 11.486 35.4099 11.5495 35.4099 11.5495C35.2195 11.9302 34.7118 12.311 34.1407 12.311C34.0138 12.311 33.8869 12.311 33.7599 12.2475C32.9984 11.9937 32.7446 10.8514 31.412 10.1534C31.412 10.2168 31.7927 9.96299 32.2369 9.96299ZM31.1581 10.661C31.7927 11.0418 32.1735 11.486 32.4908 11.8033C32.8081 12.184 33.1254 12.5648 33.5696 12.7552C33.7599 12.8186 33.9503 12.8186 34.0772 12.8186C34.7753 12.8186 35.4733 12.4379 35.7906 11.7398L36.1079 11.1687L35.4733 11.1052C35.4099 11.1052 34.5849 11.0418 33.6965 10.0264C33.3157 9.6457 32.8081 9.45532 32.3638 9.45532C31.7293 9.45532 31.2851 9.77261 31.2851 9.83607L30.7139 10.2168L31.1581 10.661Z" fill="#1A1919"/>
<path fill-rule="evenodd" clip-rule="evenodd" d="M31.4754 16.5628C31.0947 13.5167 28.8736 11.2957 26.3988 9.96307C26.1449 9.83615 25.9545 9.70924 25.7642 9.58232C26.5257 9.70924 27.7314 9.70924 28.6833 8.88428C28.6833 8.88428 27.2237 9.96307 24.3046 9.01119C25.1296 9.51886 26.7161 10.2804 28.1756 11.5495C31.7927 14.7225 29.2544 17.7685 29.2544 17.7685C30.5236 16.4358 30.587 14.9763 30.2697 13.834C30.9678 14.9128 31.3485 16.3724 31.3485 18.0223C31.2216 20.4972 29.889 22.5913 28.4929 24.2412C27.7948 25.0662 27.6679 26.0181 27.6679 26.0181C27.6679 26.0181 27.9852 25.1296 28.7467 24.2412C30.2697 22.4644 31.5389 20.6241 31.7293 18.0223C31.9196 18.4665 32.5542 19.7991 33.5061 20.3703C33.3157 20.3703 32.0466 19.6088 31.4754 16.5628Z" fill="#1A1919"/>
<path fill-rule="evenodd" clip-rule="evenodd" d="M11.8667 28.1757C8.12269 28.1757 8.18615 24.9393 8.18615 24.9393C8.18615 24.9393 7.93231 25.8912 6.91698 26.1451C6.79006 26.2085 6.66314 26.2085 6.53623 26.2085C6.15548 26.2085 5.90164 26.1451 5.90164 26.1451C5.90164 26.1451 6.40931 25.0028 5.90164 23.3529C5.45743 22.0202 5.52089 21.0049 5.52089 21.0049C5.52089 21.0049 5.01322 21.8299 3.80751 21.8299C2.72872 21.8299 2.28451 21.0049 2.28451 21.0049C4.82285 19.9261 4.56901 16.6263 4.56901 16.6263C4.56901 16.6263 4.18826 16.8801 3.55368 16.8801H3.49022C2.09413 16.8801 1.64992 15.4206 1.64992 15.4206C1.90376 15.4206 3.93443 15.3571 5.39397 13.5168C6.34585 12.3111 7.17081 11.2323 8.63036 10.8516H8.82073L8.88419 10.6612C8.94765 10.4073 8.75727 10.217 8.43998 9.96314C6.28239 8.56705 7.74194 6.72675 7.74194 6.72675C7.74194 6.72675 8.31306 8.12284 9.70915 8.12284C9.77261 8.12284 9.77261 8.12284 9.83607 8.12284C10.0264 8.12284 10.1534 8.12284 10.2803 8.05938L10.5341 7.99592C10.5341 7.99592 10.1534 6.91713 11.0418 5.96525C11.7398 5.20375 12.5648 5.07683 13.0724 5.07683C13.3263 5.07683 13.4532 5.14029 13.4532 5.14029C13.009 5.77488 12.6282 6.79021 13.1359 7.4248C13.5801 7.93246 14.7858 7.99592 14.7858 8.82088C14.7858 9.20163 14.4685 9.58238 13.8974 9.89968C12.1206 10.9785 10.4707 12.438 9.77261 14.4052C8.88419 16.8167 9.89953 18.4031 11.3591 19.355C11.3591 19.355 10.9149 19.7357 10.2803 19.7992C10.1534 19.7992 10.0264 19.7992 9.89953 19.7992C8.50344 19.7992 7.8054 19.1646 7.8054 19.1646C7.8054 19.1646 7.93231 20.053 8.63036 20.878C9.26494 21.6395 10.1534 22.0837 11.486 22.0837C11.486 22.0837 11.5494 22.7183 10.9783 23.226C10.5976 23.6067 9.77261 23.6702 9.77261 23.6702C9.77261 23.6702 11.4225 24.0509 11.5494 26.3989C11.6129 27.7315 11.9302 28.1757 11.8667 28.1757ZM12.3109 27.9219C12.3109 27.9219 11.9937 27.5411 11.9302 26.3989C11.8033 25.0663 11.3591 24.3048 10.8514 23.8605C10.9783 23.7971 11.1687 23.6702 11.2322 23.6067C11.9302 22.9721 11.9302 22.2106 11.9302 22.0837V21.703H11.5494C10.4707 21.703 9.70915 21.3222 9.01111 20.6242C8.82073 20.4338 8.69381 20.2434 8.63036 20.1165C9.01111 20.2434 9.39186 20.3069 9.89953 20.3069C10.0264 20.3069 10.2168 20.3069 10.2803 20.3069C11.0418 20.2434 11.5494 19.7992 11.6129 19.7357L11.9937 19.355L11.5494 19.0377C10.4707 18.3397 9.26494 17.007 10.1534 14.6591C10.7245 13.1361 11.9937 11.74 14.0878 10.4073C14.7858 9.96313 15.1666 9.39201 15.1666 8.9478C15.1666 8.1863 14.532 7.86901 14.0878 7.67863C13.834 7.55171 13.6436 7.4248 13.5167 7.29788C13.1359 6.91713 13.4532 6.09217 13.834 5.5845L14.2782 5.01337L13.5801 4.88646C13.5801 4.88646 13.3263 4.823 13.1359 4.823C12.6282 4.823 11.5494 4.94991 10.7245 5.83833C9.89953 6.47292 9.83607 7.23442 9.83607 7.74209C9.77261 7.74209 9.70915 7.74209 9.58223 7.74209H9.51877C8.43998 7.74209 7.99577 6.66329 7.93231 6.59984L7.67848 5.90179L7.23427 6.47292C7.23427 6.53638 6.53623 7.36134 6.7266 8.44013C6.85352 9.13818 7.29773 9.77276 8.05923 10.2804C8.12269 10.3439 8.18615 10.4073 8.24961 10.4073C6.79006 10.8516 5.9651 11.9303 5.07668 13.0091L4.94976 13.1995C3.80751 14.9129 1.90376 14.9764 1.71338 14.9764H1.0788L1.26917 15.5475C1.26917 15.6109 1.8403 17.3243 3.55368 17.3243H3.61714C3.80751 17.3243 3.99789 17.2609 4.06135 17.2609C3.99789 18.2127 3.68059 19.9261 2.09413 20.5607L1.64992 20.7511L1.90376 21.1953C1.90376 21.2587 2.47488 22.2106 3.80751 22.2106C4.37864 22.2106 4.82285 22.0837 5.14014 21.8933C5.2036 22.2741 5.33051 22.9087 5.52089 23.4798C5.9651 24.8759 5.58435 25.8912 5.52089 25.9547L5.39397 26.3989L5.90164 26.5258C5.9651 26.5258 6.28239 26.6527 6.66314 26.6527C6.85352 26.6527 7.04389 26.6527 7.10735 26.5893C7.4881 26.4623 7.8054 26.272 8.05923 26.1451C8.18615 26.5893 8.43998 27.0969 8.88419 27.5411C9.58223 28.3026 10.661 28.6199 12.0571 28.6199H12.8821L12.3109 27.9219Z" fill="#1A1919"/>
<path fill-rule="evenodd" clip-rule="evenodd" d="M4.37864 10.4072C4.75939 10.0265 5.07668 9.96301 5.45743 9.96301C5.90164 9.96301 6.34585 10.2168 6.34585 10.2168C5.01322 10.9149 4.75939 11.9937 3.99788 12.311C3.87097 12.3744 3.74405 12.3744 3.61713 12.3744C3.10947 12.3744 2.53834 11.9937 2.34796 11.6129C2.28451 11.5495 3.23638 11.486 4.37864 10.4072ZM3.55368 12.8186C3.74405 12.8186 3.93443 12.8186 4.06134 12.7552C4.50555 12.5648 4.82285 12.2475 5.14014 11.8033C5.45743 11.3591 5.83818 10.9149 6.47277 10.6611L7.10735 10.2803L6.53622 9.89955C6.53622 9.83609 6.02856 9.5188 5.45743 9.5188C4.94976 9.5188 4.44209 9.77263 4.1248 10.0899C3.17292 11.0418 2.34796 11.1687 2.34796 11.1687L1.71338 11.2322L2.03067 11.8033C2.15759 12.3744 2.85563 12.8186 3.55368 12.8186Z" fill="#1A1919"/>
<path fill-rule="evenodd" clip-rule="evenodd" d="M6.47277 18.0223C6.40931 16.3089 6.85352 14.9128 7.55156 13.834C7.17081 14.9763 7.17081 16.4358 8.5669 17.7685C8.5669 17.7685 6.02856 14.659 9.64569 11.5495C11.1052 10.3438 12.6917 9.64578 13.5167 9.01119C10.5976 9.96307 9.13802 8.88428 9.13802 8.88428C10.0899 9.70924 11.2956 9.70924 12.0571 9.58232C11.8667 9.70924 11.6764 9.7727 11.4225 9.96307C8.94765 11.2957 6.7266 13.5167 6.34585 16.6262C5.77472 19.6722 4.50555 20.4337 4.50555 20.4337C5.52089 19.9261 6.15547 18.5934 6.28239 18.0858C6.47277 20.6876 7.74194 22.5913 9.26494 24.3047C10.0264 25.2566 10.3437 26.0815 10.3437 26.0815C10.3437 26.0815 10.1534 25.0662 9.51877 24.3047C7.93231 22.5913 6.59968 20.4972 6.47277 18.0223Z" fill="#1A1919"/>
<path fill-rule="evenodd" clip-rule="evenodd" d="M18.0222 11.8667V12.4378C18.2761 12.184 18.6568 12.2474 18.6568 12.2474V13.1359C18.6568 13.1359 18.6568 13.5166 18.4664 13.7705H19.2914C19.101 13.5801 19.101 13.1359 19.101 13.1359V12.2474C19.101 12.2474 19.4818 12.184 19.7356 12.4378V11.8667H18.0222Z" fill="#1A1919"/>
<path fill-rule="evenodd" clip-rule="evenodd" d="M17.578 8.24964C17.8953 8.50348 18.0222 8.50348 18.0222 8.56694L18.1491 8.6304V8.05927L17.1338 7.61506C17.1338 7.5516 17.1338 7.86889 17.578 8.24964Z" fill="#1A1919"/>
<path fill-rule="evenodd" clip-rule="evenodd" d="M20.0529 8.24956C20.4971 7.86881 20.4971 7.55151 20.4971 7.55151L19.4183 7.93226V8.50339L19.5453 8.43993C19.6722 8.50339 19.7356 8.50339 20.0529 8.24956Z" fill="#1A1919"/>
<path fill-rule="evenodd" clip-rule="evenodd" d="M18.8472 6.72659L16.3723 5.71125C16.6261 5.20359 17.5145 4.75938 18.8472 4.75938C20.1798 4.75938 21.1317 5.14013 21.3855 5.71125L18.8472 6.72659ZM20.6875 9.7726L18.9741 10.661V7.10734L21.2586 6.34584L20.6875 9.7726ZM21.7663 10.7245L22.5278 11.1687L22.7181 11.2956C22.3374 11.4225 21.9566 11.6764 21.6393 11.9302C21.6393 11.9302 21.6393 11.9302 21.5759 11.9936C21.5124 12.0571 21.449 12.1206 21.3855 12.2475C21.3855 12.2475 21.3855 12.2475 21.322 12.3109C21.2586 12.3744 21.1951 12.5013 21.1317 12.5648C21.1317 12.5648 21.1317 12.5648 21.1317 12.6282C21.0682 12.7551 21.0048 12.8186 20.9413 12.9455C20.4336 13.8974 19.5452 14.4685 18.7837 14.4685C18.0222 14.4685 17.1338 13.8974 16.6261 12.9455C16.5627 12.8186 16.4992 12.7551 16.4357 12.6282C16.4357 12.6282 16.4357 12.5648 16.3723 12.5648C16.3088 12.5013 16.2454 12.3744 16.1819 12.3109C16.1819 12.3109 16.1819 12.2475 16.1185 12.2475C16.055 12.184 15.9915 12.1206 15.9281 11.9936C15.9281 11.9936 15.9281 11.9936 15.8646 11.9302C15.5473 11.6129 15.2935 11.4225 14.7858 11.2956L14.9762 11.1687L15.7377 10.7245L16.4992 10.2803L18.5933 11.4225L20.6875 10.2803L21.7663 10.7245ZM24.6854 13.8974C24.495 14.3416 24.3681 14.8493 24.3681 15.2935V18.4664C23.7335 18.3395 23.6066 17.6414 23.6066 17.6414V17.5145H23.4796C23.1623 17.5145 23.0354 17.3242 22.8451 17.1972C22.5278 16.8165 22.4643 16.3723 22.5278 16.3088C22.5278 16.3088 22.147 16.8165 22.5912 17.3876C22.7816 17.6414 22.972 17.7684 23.3527 17.7684C23.4162 18.1491 23.7335 18.7202 24.4315 18.8472V20.3702H22.5278C21.6393 19.8625 22.0201 19.0375 22.0836 18.9741L22.147 18.7837L21.8932 18.6568C20.8778 18.276 21.1951 17.3242 21.1951 17.3242L21.2586 17.1972L21.1317 17.1338C20.3067 16.753 20.4336 15.8012 20.4336 15.7377C20.1798 15.9281 20.0529 16.3088 20.2433 16.753C20.1163 16.8799 19.9894 17.0069 19.8625 17.1338C19.0375 16.8799 18.9741 16.1184 18.9741 16.1184V15.9915L18.8472 15.9281C18.4664 15.8012 18.3395 15.6108 18.2126 15.4204C18.0857 15.1031 18.1491 14.9127 18.1491 14.7224C18.276 14.7224 18.3395 14.7858 18.4664 14.7858C18.5933 14.7858 18.6568 14.7858 18.7837 14.7858C18.9106 14.7858 18.9741 14.7858 19.101 14.7858C19.6087 14.7224 20.1798 14.4685 20.8144 13.8974H24.6854ZM22.3374 27.541L22.5912 26.4622C22.5912 26.3987 22.5912 26.3353 22.6547 26.2083C22.7181 26.2083 22.7816 26.2718 22.8451 26.2718C22.9085 26.2718 23.0354 26.2718 23.0989 26.2718C23.4796 26.2718 23.6066 26.0814 23.7335 25.8911L23.9238 25.7007L23.7969 25.4468C23.7969 25.4468 23.4796 25.0026 23.2893 24.6219C23.2258 24.5584 23.1623 24.495 23.1623 24.4315C22.9085 24.0508 22.5912 23.5431 21.9566 23.5431H21.8932C21.7663 23.5431 21.7028 23.5431 21.5759 23.6065C21.322 23.4796 21.1951 23.4162 20.9413 23.4162C20.624 23.4162 20.4336 23.4796 20.3067 23.5431C20.2433 23.5431 20.2433 23.5431 20.1798 23.6065L18.9741 23.4796C18.9741 23.4796 18.9106 23.4162 18.8472 23.3527L19.1645 23.2258C19.101 22.3374 18.2126 21.7663 17.7684 21.5759C17.7684 21.449 17.7049 21.3855 17.6415 21.322L17.3242 21.0682L16.88 21.5759L16.753 21.7028L14.9762 21.0047L16.055 22.4008L15.6108 23.0354C15.4204 23.2258 15.6108 23.4162 15.6108 23.4162L16.055 23.7335L16.4992 23.5431H16.5627C16.5627 23.6065 16.4992 23.9238 16.4992 23.9238L15.6742 23.7335L14.7858 24.1777C14.3416 24.5584 14.2782 25.0661 14.4051 25.3834L14.532 25.6372L14.6589 25.9545L14.9762 25.8276C14.8493 26.2083 14.9127 26.5256 15.1031 26.716L15.2935 26.9698L15.5473 27.2871L15.8646 26.9698C15.9281 26.9064 16.2454 26.5891 16.2454 26.3987L16.3088 26.2083L16.1819 26.0814L16.3723 25.8276L17.4511 26.0814L17.7049 26.1449L17.8318 25.8911L17.8953 25.7641C17.8953 25.7641 17.8953 25.7641 17.9587 25.7641C18.0222 25.7641 18.0222 25.7641 18.0857 25.7641C18.4664 25.8276 18.8472 25.8911 19.1645 25.8911C19.4818 25.8911 19.6721 25.8911 19.926 25.7641C19.926 25.7641 20.4971 26.3987 20.4971 26.4622L20.1163 27.541V27.6044C19.4818 27.6679 19.101 27.7948 18.7203 28.1756C18.1491 27.6044 17.7049 27.541 16.1819 27.541C14.4051 27.541 13.0724 26.4622 13.0724 24.7488V20.5605H24.1777V24.7488C24.4315 26.2718 23.6066 27.2237 22.3374 27.541ZM15.4204 25.1295L15.4839 25.2565C15.4204 25.3834 15.0397 25.5738 15.0397 25.5738L14.9127 25.3199C14.7858 25.0661 14.8493 24.7488 15.1666 24.495L15.8646 24.1142L16.6261 24.3046C16.6261 24.5584 16.753 24.6853 16.753 24.6853L15.9915 24.495L15.5473 24.8757C15.357 25.0026 15.357 25.0661 15.4204 25.1295ZM22.2105 26.3987L21.9566 27.6679C21.7663 27.6679 21.6393 27.7313 21.5124 27.7313L21.7663 26.5256C21.8297 26.1449 20.8778 26.0814 20.4336 25.3834C20.1798 25.6372 19.799 25.7641 19.3548 25.7641C18.9741 25.7641 18.5299 25.7007 18.276 25.6372C18.2126 25.6372 18.1491 25.6372 18.0857 25.6372C17.9588 25.6372 17.7684 25.7007 17.7049 25.8276L17.6415 25.9545L16.3723 25.6372L15.9915 26.1449C15.9281 26.2718 15.9281 26.3353 15.9915 26.3987L16.1185 26.5256C16.055 26.716 15.7377 26.9698 15.7377 26.9698L15.6108 26.6526C15.4204 26.4622 15.4839 26.2083 15.6742 25.8911L16.1819 25.0026L17.2607 25.193L17.1338 24.8123C16.88 24.3046 17.2607 23.67 17.3242 23.2258C17.3242 23.3527 17.1972 23.3527 17.0703 23.3527C16.9434 23.3527 16.8165 23.3527 16.753 23.3527C16.6896 23.3527 16.6896 23.3527 16.6896 23.3527L16.3723 23.5431L16.1185 23.2893C16.1185 23.2258 16.055 23.1623 16.1819 23.0354L16.6896 22.4008L16.055 21.6393L17.0069 22.0835L17.3242 21.7028C17.3876 21.7663 17.3876 22.0201 17.3876 22.0201C17.7049 22.0201 18.4664 22.4643 18.4664 23.4796C18.4664 23.5431 18.4664 23.5431 18.4664 23.6065C18.4664 23.6065 18.4664 23.6065 18.4664 23.67C18.5299 23.7335 18.7203 23.9873 18.8472 23.9873L20.1163 24.1142C20.2433 24.1142 20.4971 23.9238 20.8778 23.9238C21.0682 23.9238 21.2586 23.9873 21.5124 24.1142C21.5124 24.1142 21.6393 23.9873 21.8297 23.9873H21.8932C22.4643 23.9873 22.7181 24.495 22.972 24.9392C23.2258 25.3199 23.4796 25.7641 23.4796 25.7641C23.3527 25.8911 23.2258 26.018 23.0989 26.018C23.0354 26.018 22.972 26.018 22.9085 26.018C22.3374 25.8911 22.2105 24.6853 21.8297 24.5584H21.7663C21.6393 24.5584 21.5759 24.6853 21.5759 24.6853C21.7663 25.0661 21.6393 25.2565 21.8297 25.6372C21.9566 25.8911 22.2105 26.0814 22.2739 26.1449C22.2739 26.018 22.2105 26.2083 22.2105 26.3987ZM21.0682 27.6679C20.8778 27.6679 20.6875 27.6679 20.624 27.6679L21.0048 26.5256C21.0682 26.3353 20.7509 26.1449 20.624 26.018C20.8144 26.1449 21.2586 26.3987 21.5124 26.4622C21.449 26.4622 21.0682 27.6679 21.0682 27.6679ZM15.5473 17.3242L15.6108 15.3569L16.055 14.9127L16.3723 15.4839L15.8012 17.3242H15.5473ZM15.9281 17.8953C15.9915 18.0857 16.1819 18.1491 16.2454 18.2126C16.2454 18.3395 16.2454 18.5933 16.1819 18.7837C16.1819 18.8472 16.1819 18.8472 16.1185 18.9106V18.9741C15.9915 18.9741 15.7377 18.9741 15.4839 18.8472C15.23 18.7202 14.9127 18.3395 14.9762 17.7684C15.1031 17.7049 15.357 17.578 15.5473 17.578C15.6742 17.7049 15.8012 17.7684 15.9281 17.8953ZM21.0682 18.5299C20.6875 18.7837 19.8625 19.4183 19.4818 19.6087L16.3723 19.0375V18.9741C16.4357 18.7837 16.4357 18.5933 16.4357 18.3395L19.0375 18.403L19.101 18.3395C19.1645 18.276 19.9894 17.5145 20.3702 17.0703C20.4971 17.1972 20.624 17.3242 20.7509 17.4511C20.8144 17.7049 20.8144 18.0857 21.0682 18.5299ZM16.8165 13.8974C17.1972 14.2781 17.578 14.4685 17.8953 14.5954C17.8318 14.7858 17.7684 15.1031 17.9587 15.5473C18.0857 15.8646 18.3395 16.055 18.7203 16.2454C18.7837 16.6261 19.0375 17.1972 19.6721 17.3876C19.3548 17.7049 19.1645 17.8953 19.0375 18.0222L16.3723 17.9587C16.3088 17.8953 16.1819 17.8318 16.1819 17.7684C16.1819 17.7684 16.1819 17.7684 16.1819 17.7049L16.5627 17.7684C16.6261 17.7684 16.753 17.7049 16.753 17.6414C16.753 17.5145 16.6896 17.4511 16.6261 17.4511L16.1185 17.3876L16.6896 15.4204L16.1819 14.2781L15.23 15.1666V17.2607L14.6589 17.1338C14.532 17.1338 14.4685 17.1972 14.4685 17.2607C14.4685 17.3876 14.532 17.4511 14.5955 17.4511L14.8493 17.5145C14.7224 17.578 14.6589 17.6414 14.6589 17.6414V17.7049V17.7684C14.532 18.3395 14.8493 18.8472 15.1666 19.1645V19.2279C15.1666 19.3548 15.1666 19.4183 15.23 19.4817C15.2935 19.5452 15.357 19.6087 15.4839 19.6087H15.5473C15.7377 19.6087 15.8646 19.4817 15.9281 19.3548C16.055 19.3548 16.1819 19.3548 16.3088 19.3548H16.3723L19.7356 19.9894L19.799 19.926C20.1163 19.7356 21.0682 18.9741 21.449 18.7837C21.5759 18.8472 21.6393 18.9741 21.8297 19.0375C21.7028 19.4183 21.7028 19.9894 22.147 20.4336H13.2628V15.4204C13.2628 14.9762 13.1359 14.4051 12.9455 14.0243L16.8165 13.8974ZM16.3723 6.34584L18.6568 7.10734V10.661L16.9434 9.7726L16.3723 6.34584ZM21.8932 5.90163C21.8932 5.01321 20.4336 4.25171 18.7837 4.25171C17.1338 4.25171 15.6742 5.01321 15.6742 5.90163L15.7377 6.15546L16.3723 9.83606L15.7377 10.2168L14.0243 11.2321C14.0243 11.2321 13.6436 11.4225 13.5167 11.5494C12.8821 11.9936 12.7552 12.6282 13.1359 12.8821C13.2628 12.3744 13.6436 11.8033 14.4051 11.8033C14.9762 11.8033 15.4204 12.1206 15.7377 12.5013C15.8646 12.6282 15.9281 12.7551 15.9915 12.8821C16.1185 13.0724 16.1819 13.1994 16.3088 13.2628H11.9937C12.3109 13.8974 12.6282 14.5954 12.6282 15.2935V24.8757C12.6282 27.2237 14.4051 28.3025 16.3088 28.3025C17.7684 28.3025 18.0222 28.239 18.8472 29.064C19.6721 28.239 19.8625 28.3025 21.3855 28.3025C23.2893 28.3025 25.0661 27.2237 25.0661 24.8757V15.2935C25.0661 14.532 25.3834 13.8974 25.7007 13.2628H21.3855C21.5124 13.1359 21.5759 12.9455 21.7028 12.8821C21.7663 12.7551 21.8932 12.6282 21.9566 12.5013C22.3374 12.1206 22.7181 11.8033 23.2893 11.8033C24.0508 11.8033 24.4315 12.3109 24.5584 12.8821C24.9392 12.5648 24.8123 11.9302 24.1777 11.5494C23.9873 11.4225 23.67 11.2321 23.67 11.2321L21.9566 10.2168L21.322 9.83606L21.9566 6.15546L21.8932 5.90163Z" fill="#1A1919"/>
<path d="M49.6246 21.5759H52.6071V14.6589H56.6685V12.1206H45.5632V14.6589H49.6246V21.5759ZM60.8567 21.5759V12.1206H57.8742V21.5759H60.8567ZM65.6796 12.1206H63.0143V21.5759H65.743V16.3723L70.8197 21.5759H73.358V12.1206H70.6293V17.2607L65.6796 12.1206ZM78.4347 18.0222H79.1962L82.623 21.5759H86.4305L81.6711 16.6896L86.2401 12.1841H82.623L79.1328 15.7377H78.3713V12.1841H75.5156V21.5759H78.3713V18.0222H78.4347Z" fill="black"/>
<path d="M92.3956 11.8667C88.5246 11.8667 86.2401 14.0243 86.2401 16.8799C86.2401 19.7356 88.5881 21.8931 92.3956 21.8931C96.2666 21.8931 98.5511 19.7356 98.5511 16.8799C98.5511 14.0243 96.2666 11.8667 92.3956 11.8667ZM92.3956 19.5452C90.4918 19.5452 89.2227 18.4029 89.2227 16.8799C89.2227 15.3569 90.4284 14.2147 92.3956 14.2147C94.2993 14.2147 95.5685 15.3569 95.5685 16.8799C95.5685 18.4029 94.2993 19.5452 92.3956 19.5452ZM109.402 14.532V12.1205H99.9471V21.5758H102.803V18.2125H109.149V16.2453H102.803V14.532H109.402ZM120 14.532V12.1205H110.545V21.5758H113.4V18.2125H119.746V16.2453H113.4V14.532C113.464 14.532 120 14.532 120 14.532Z" fill="black"/>
</g>
<defs>
<clipPath id="clip0_944_12450">
<rect width="120" height="33.633" fill="white"/>
</clipPath>
</defs>
</svg>
