<svg width="16" height="16" viewBox="0 0 16 16" fill="none" xmlns="http://www.w3.org/2000/svg">
<path opacity="0.4" d="M12.5394 6.01416C12.2384 6.01416 11.8397 6.0075 11.3433 6.0075C10.1326 6.0075 9.13719 5.0055 9.13719 3.7835V1.6395C9.13719 1.47083 9.00253 1.3335 8.83553 1.3335H5.30925C3.66361 1.3335 2.3335 2.68416 2.3335 4.3395V11.5228C2.3335 13.2595 3.72698 14.6668 5.44655 14.6668H10.6977C12.3374 14.6668 13.6668 13.3248 13.6668 11.6682V6.31416C13.6668 6.14483 13.5328 6.00816 13.3652 6.00883C13.0833 6.01083 12.7453 6.01416 12.5394 6.01416Z" fill="#555555"/>
<path opacity="0.4" d="M10.7226 1.71158C10.5233 1.50425 10.1753 1.64691 10.1753 1.93425V3.69225C10.1753 4.42958 10.7826 5.03625 11.52 5.03625C11.9846 5.04158 12.63 5.04291 13.178 5.04158C13.4586 5.04091 13.6013 4.70558 13.4066 4.50291C12.7033 3.77158 11.444 2.46091 10.7226 1.71158Z" fill="#555555"/>
<path d="M9.61222 9.92859C9.88622 9.92859 10.1089 10.1513 10.1089 10.4253C10.1089 10.6993 9.88622 10.9213 9.61222 10.9213H5.98288C5.70888 10.9213 5.48688 10.6993 5.48688 10.4253C5.48688 10.1513 5.70888 9.92859 5.98288 9.92859H9.61222ZM8.23948 6.59912C8.51348 6.59912 8.73615 6.82179 8.73615 7.09579C8.73615 7.36979 8.51348 7.59179 8.23948 7.59179H5.98282C5.70882 7.59179 5.48682 7.36979 5.48682 7.09579C5.48682 6.82179 5.70882 6.59912 5.98282 6.59912H8.23948Z" fill="#555555"/>
</svg>
