<svg width="16" height="16" viewBox="0 0 16 16" fill="none" xmlns="http://www.w3.org/2000/svg">
<path opacity="0.4" d="M12.5394 6.01416C12.2384 6.01416 11.8398 6.0075 11.3434 6.0075C10.1328 6.0075 9.13746 5.0055 9.13746 3.7835V1.6395C9.13746 1.47083 9.00214 1.3335 8.83515 1.3335H5.30973C3.66419 1.3335 2.3335 2.68416 2.3335 4.3395V11.5228C2.3335 13.2595 3.72756 14.6668 5.44703 14.6668H10.6972C12.3375 14.6668 13.6668 13.3248 13.6668 11.6682V6.31416C13.6668 6.14483 13.5322 6.00816 13.3645 6.00883C13.0827 6.01083 12.7447 6.01416 12.5394 6.01416Z" fill="#A9A9A9"/>
<path opacity="0.4" d="M10.7231 1.71158C10.5238 1.50425 10.1758 1.64691 10.1758 1.93425V3.69225C10.1758 4.42958 10.7824 5.03625 11.5198 5.03625C11.9851 5.04158 12.6304 5.04291 13.1784 5.04158C13.4591 5.04091 13.6018 4.70558 13.4071 4.50291C12.7038 3.77158 11.4444 2.46091 10.7231 1.71158Z" fill="#A9A9A9"/>
<path d="M10.0703 8.47289C9.87566 8.28022 9.56232 8.27889 9.36766 8.47422L8.30832 9.53889V6.32089C8.30832 6.04689 8.08566 5.82422 7.81166 5.82422C7.53766 5.82422 7.31499 6.04689 7.31499 6.32089V9.53889L6.25499 8.47422C6.06099 8.27889 5.74699 8.28022 5.55299 8.47289C5.35832 8.66622 5.35832 8.98022 5.55099 9.17489L7.45966 11.0922H7.46032C7.50566 11.1376 7.55966 11.1742 7.62032 11.1996C7.68032 11.2242 7.74566 11.2376 7.81166 11.2376C7.87832 11.2376 7.94366 11.2242 8.00366 11.1989C8.06299 11.1742 8.11699 11.1376 8.16232 11.0929L8.16366 11.0922L10.0717 9.17489C10.265 8.98022 10.265 8.66622 10.0703 8.47289Z" fill="#A9A9A9"/>
</svg>
