<svg width="43" height="41" viewBox="0 0 43 41" fill="none" xmlns="http://www.w3.org/2000/svg">
<path fill-rule="evenodd" clip-rule="evenodd" d="M4.98464 1.98247C4.70641 3.55137 4.241 6.04148 4.20051 6.25604C4.00617 7.28591 3.83202 8.34584 3.6601 9.42355C4.06514 9.71913 4.42547 10.0249 4.67527 10.2369C4.70988 10.2663 4.74237 10.2939 4.77256 10.3194C5.69988 11.1024 6.6805 12.0937 7.51326 13.1974C7.15098 11.5848 6.78615 9.97195 6.42127 8.35889C5.94058 6.23385 5.4598 4.10842 4.98464 1.98247ZM7.45491 14.0832C6.58814 12.813 5.4742 11.6505 4.40845 10.7506C4.37771 10.7246 4.34507 10.6969 4.31068 10.6677C4.11055 10.498 3.85095 10.2778 3.55999 10.0538C3.55116 10.1095 3.54233 10.1653 3.5335 10.2211L3.52983 10.2443C3.36138 11.3081 3.19074 12.3858 3.00142 13.4618C3.96998 13.7505 5.04581 13.8537 5.8663 13.9301C6.09154 13.9511 6.32249 13.9739 6.55803 13.9971C6.8506 14.026 7.15027 14.0555 7.45491 14.0832ZM2.36029 13.8413C2.33817 13.9631 2.31578 14.0849 2.29309 14.2065C1.78737 16.9183 1.13741 19.5725 0.0743109 21.958C0.0108743 22.1003 0.0748426 22.2671 0.217188 22.3306C0.359534 22.394 0.526353 22.33 0.58979 22.1877C1.6796 19.7423 2.33923 17.0374 2.84787 14.31C2.86587 14.2135 2.88368 14.117 2.90131 14.0204C3.92085 14.3153 5.02203 14.4183 5.81397 14.492C6.03324 14.5125 6.26003 14.5348 6.4929 14.5578C6.9231 14.6003 7.37408 14.6449 7.83696 14.6828C7.90348 15.019 7.96664 15.3628 8.03085 15.7125C8.09876 16.0822 8.16785 16.4584 8.24338 16.8388C8.43481 17.803 8.66417 18.7734 9.0116 19.642C9.03372 19.6973 9.05841 19.7513 9.08677 19.7967C9.10087 19.8193 9.12106 19.8482 9.14853 19.8756C9.17338 19.9003 9.22468 19.9446 9.30314 19.9626C9.39759 19.9843 9.48871 19.9585 9.55543 19.9065C9.61073 19.8635 9.63855 19.8115 9.65147 19.7835C9.67771 19.7265 9.68796 19.6656 9.6933 19.6247C9.71551 19.4549 9.70473 19.1622 9.68119 18.8511C9.63306 18.2151 9.51965 17.3674 9.4143 16.9348C9.2328 16.1893 8.92034 15.4482 8.52124 14.7326C9.09605 14.7684 9.68204 14.7882 10.2631 14.7765C11.645 14.7484 13.0331 14.542 14.2105 13.9273C14.0098 14.4993 13.8796 15.0945 13.8215 15.6753C13.8141 15.7493 13.8119 15.8206 13.8185 15.8865C13.8248 15.9495 13.8408 16.0271 13.8847 16.099C13.934 16.1798 14.0141 16.2445 14.1191 16.2665C14.2126 16.2862 14.2953 16.2655 14.3505 16.2446C14.4573 16.2041 14.5568 16.1255 14.6361 16.0539C14.7215 15.9768 14.8106 15.8825 14.8972 15.7837C15.1738 15.4681 15.4779 15.0429 15.6113 14.8563C15.6418 14.8137 15.6633 14.7836 15.6737 14.77C15.7229 14.7052 15.7841 14.6016 15.8479 14.4884C15.9146 14.37 15.994 14.2232 16.0814 14.0613L16.1042 14.0189C16.2753 13.7018 16.4772 13.3275 16.6875 12.968C16.9085 12.5902 17.1317 12.2412 17.3308 11.9977C17.4106 11.9001 17.4801 11.8274 17.5381 11.7779C17.5519 11.8481 17.5642 11.9382 17.5741 12.0481C17.6036 12.3717 17.6083 12.8094 17.6006 13.2722C17.5928 13.7327 17.573 14.2088 17.5549 14.6064C17.5516 14.6789 17.5484 14.7491 17.5453 14.8164C17.5316 15.1128 17.5205 15.3526 17.5205 15.4728C17.5205 15.6079 17.5236 15.7195 17.5313 15.8082C17.5381 15.8872 17.5507 15.9821 17.5874 16.061C17.6066 16.1024 17.6466 16.1707 17.7262 16.2167C17.8174 16.2694 17.9127 16.2661 17.9837 16.2433C18.0453 16.2236 18.0904 16.1896 18.1162 16.1679C18.1445 16.144 18.1694 16.1177 18.1898 16.0945C18.2298 16.0489 18.2726 15.992 18.3123 15.9387C18.3179 15.9312 18.3235 15.9237 18.3292 15.9161C18.3661 15.8666 18.4043 15.8152 18.4466 15.7615C18.5441 15.6378 18.6535 15.5142 18.7787 15.4149C19.0155 15.2271 19.2726 15.0686 19.5446 14.9241C19.5638 14.9565 19.5876 14.9878 19.6171 15.0172C19.6858 15.0859 19.7643 15.1226 19.8263 15.1444C19.8828 15.1644 19.9418 15.1772 19.9825 15.186L19.9893 15.1874C20.0369 15.1978 20.066 15.2045 20.0904 15.2131C20.1128 15.2209 20.1182 15.226 20.1173 15.2252C20.2084 15.304 20.2943 15.3897 20.3753 15.4814C17.292 21.2105 16.2068 27.9247 16.2708 34.3293C16.2715 34.3959 16.2699 34.4995 16.2679 34.6327C16.2588 35.2231 16.2408 36.3939 16.3711 37.4873C16.4508 38.1563 16.5888 38.8275 16.8339 39.335C17.0783 39.841 17.4724 40.2607 18.0801 40.2379C18.7071 40.2144 19.2283 39.741 19.6101 39.2675C20.0038 38.7793 20.3136 38.2088 20.5021 37.8568C23.4877 32.2817 23.4312 25.2415 22.3142 19.2429C22.3075 19.2069 22.3008 19.1704 22.2939 19.1336C22.1703 18.4677 22.0224 17.6712 21.7709 16.9172C21.5959 16.3925 21.3663 15.8739 21.0491 15.4254C21.2443 15.0739 21.4474 14.7263 21.6584 14.3831C21.67 14.3644 21.6849 14.34 21.7028 14.3106C21.7853 14.1752 21.9327 13.9336 22.1198 13.642C22.2605 13.5475 22.3974 13.4456 22.5288 13.3344C22.537 13.4499 22.5432 13.5515 22.5432 13.6408C22.5432 13.6868 22.5451 13.7344 22.552 13.7776C22.5555 13.799 22.5615 13.8288 22.5738 13.8607C22.584 13.8872 22.6111 13.9491 22.676 13.998C22.7597 14.061 22.8632 14.0709 22.9501 14.0403C23.0179 14.0165 23.0599 13.9743 23.0773 13.9554C23.1147 13.9146 23.1395 13.8677 23.1533 13.8398C23.2123 13.7209 23.2815 13.506 23.3473 13.2806C23.4836 12.8134 23.6368 12.1884 23.7075 11.8701C23.7295 11.771 23.7439 11.6548 23.722 11.5428C23.8475 11.4258 23.9566 11.3431 24.0464 11.2943C24.1123 11.2584 24.1516 11.2495 24.1703 11.2475C24.1862 11.2647 24.2091 11.2973 24.2357 11.3509C24.2896 11.4591 24.3382 11.6106 24.3801 11.7809C24.4415 12.0308 24.4761 12.2596 24.5001 12.4186C24.5103 12.4859 24.5185 12.5407 24.5262 12.5794C25.0984 15.4761 25.2531 18.4579 25.3338 21.4253C25.4166 24.4711 25.404 27.519 25.3914 30.5707C25.3868 31.6805 25.3822 32.7909 25.3822 33.9019C25.3822 33.9284 25.3817 33.9542 25.3812 33.984C25.3806 34.0143 25.38 34.0488 25.3797 34.0926C25.3792 34.1617 25.3797 34.2522 25.3892 34.321C25.3917 34.3395 25.3959 34.364 25.4033 34.39C25.4087 34.4085 25.4248 34.4623 25.4684 34.513C25.4929 34.5416 25.5351 34.5796 25.5987 34.6007C25.6666 34.6232 25.7335 34.6179 25.7884 34.5983C25.8789 34.5658 25.9258 34.4989 25.938 34.4815C25.9718 34.4331 25.9946 34.3744 26.0103 34.3304C26.0286 34.2787 26.0484 34.2135 26.0701 34.1338C26.3025 33.2818 26.5029 32.4231 26.7021 31.5702C26.7341 31.4332 26.766 31.2963 26.7981 31.1595C27.0302 30.1698 27.2675 29.1886 27.5602 28.2207C28.8999 23.7905 30.653 19.4876 32.4045 15.1886L32.4529 15.0697C32.503 14.9469 32.5456 14.8374 32.5847 14.7367C32.6331 14.6124 32.6763 14.5015 32.7218 14.3953C32.8031 14.2058 32.8655 14.0993 32.9199 14.0445C32.9429 14.0212 32.9574 14.0148 32.9643 14.0125C32.9703 14.0105 32.985 14.0068 33.0172 14.013C33.0934 14.0276 33.2278 14.0894 33.4489 14.2631C34.4333 15.0366 35.5621 15.7007 36.7176 16.1822C38.3873 16.8779 39.7047 16.6343 41.2209 16.3539C41.4337 16.3146 41.6504 16.2745 41.8726 16.2362C42.0262 16.2097 42.1292 16.0638 42.1027 15.9102C42.0763 15.7566 41.9303 15.6536 41.7767 15.6801C41.5462 15.7198 41.3251 15.7603 41.1112 15.7996C39.592 16.0781 38.4414 16.2891 36.9347 15.6613C35.8268 15.1997 34.7422 14.5616 33.7975 13.8193C33.5586 13.6316 33.3364 13.4995 33.1233 13.4587C33.0109 13.4372 32.8978 13.4404 32.7883 13.4763C32.6797 13.5119 32.5911 13.5744 32.5189 13.6473C32.3826 13.7849 32.2858 13.9803 32.2032 14.1729C32.1565 14.2817 32.1057 14.4118 32.0526 14.548C32.0129 14.6496 31.9719 14.7546 31.9303 14.8568L31.8772 14.9871C30.1289 19.2782 28.3674 23.6018 27.02 28.0573C26.7217 29.0438 26.4809 30.0402 26.2486 31.0307C26.2164 31.1684 26.1843 31.3059 26.1522 31.4432C26.0848 31.7318 26.0176 32.0198 25.9492 32.307C25.951 31.7319 25.9533 31.1565 25.9557 30.5808C25.9683 27.5263 25.981 24.4654 25.8979 21.41C25.8172 18.4375 25.6617 15.4159 25.0798 12.47C25.0779 12.4604 25.0741 12.4352 25.0685 12.3983C25.0467 12.2539 24.9977 11.9292 24.9281 11.6462C24.8826 11.4611 24.8222 11.2629 24.7411 11.0996C24.7004 11.0178 24.6494 10.9343 24.5843 10.8639C24.5192 10.7936 24.4276 10.7233 24.3061 10.6963C24.1126 10.6533 23.9259 10.7173 23.7767 10.7985C23.6226 10.8824 23.4673 11.0068 23.3176 11.1484C23.3062 11.1592 23.2948 11.1701 23.2834 11.1812C23.2528 11.1804 23.2239 11.182 23.1979 11.1849C23.0655 11.1995 22.9254 11.2519 22.797 11.3121C22.6641 11.3744 22.5228 11.4551 22.3832 11.5427C21.8303 11.8898 21.2276 12.3946 21.1273 12.4894C21.1187 12.4974 21.1071 12.5083 21.0926 12.5219C20.946 12.659 20.5113 13.0656 20.1373 13.495C19.9336 13.7289 19.7346 13.9844 19.6115 14.2164C19.6018 14.2345 19.5924 14.253 19.5833 14.2718C19.1812 14.4674 18.7846 14.6899 18.428 14.9727C18.2957 15.0776 18.183 15.1961 18.0887 15.3074C18.0929 15.1909 18.1001 15.0354 18.1087 14.8508C18.1118 14.7818 18.1152 14.7087 18.1187 14.632C18.1368 14.2336 18.157 13.7507 18.1648 13.2816C18.1726 12.8147 18.1685 12.3521 18.1362 11.997C18.1202 11.8214 18.0962 11.6574 18.0578 11.5281C18.0388 11.4642 18.0119 11.3936 17.9709 11.3312C17.9311 11.2708 17.8557 11.1851 17.7304 11.1573C17.5357 11.114 17.3638 11.2045 17.2498 11.287C17.1272 11.3758 17.0071 11.502 16.8939 11.6405C16.6658 11.9195 16.4246 12.2998 16.2004 12.6831C15.985 13.0512 15.7789 13.4334 15.6086 13.749L15.5847 13.7933C15.4968 13.9562 15.4199 14.0983 15.3563 14.2113C15.2897 14.3293 15.2465 14.3994 15.2242 14.4286C15.2052 14.4536 15.1735 14.4979 15.1322 14.5556C14.9875 14.7575 14.7245 15.1246 14.4728 15.4117C14.4525 15.4349 14.4326 15.4571 14.4132 15.4784C14.5263 14.6582 14.7919 13.8256 15.1971 13.1018C15.2912 12.9813 15.3809 12.8582 15.4575 12.7484C15.5667 12.5919 15.6584 12.4493 15.6972 12.3759C15.7026 12.3657 15.7091 12.3528 15.7152 12.3388C15.7168 12.3351 15.735 12.296 15.7403 12.2464C15.742 12.231 15.7439 12.2028 15.7381 12.1682C15.7324 12.1343 15.7159 12.0741 15.6638 12.0194C15.5377 11.8869 15.3805 11.9412 15.3557 11.9508C15.3155 11.9664 15.2881 11.9877 15.2802 11.994C15.2682 12.0034 15.2588 12.0122 15.2528 12.018C15.2185 12.0513 15.1732 12.1101 15.1254 12.1744C14.9811 12.3687 14.8482 12.5737 14.7268 12.787C14.6956 12.8264 14.6641 12.8651 14.6329 12.9023C14.4996 13.0612 14.391 13.1677 14.3264 13.2089C13.1951 13.9317 11.76 14.1816 10.2517 14.2122C9.60209 14.2254 8.94682 14.198 8.30439 14.1526C8.28681 14.0699 8.26895 13.9879 8.25078 13.9067C7.82662 12.0137 7.39887 10.1227 6.97119 8.23206C6.38751 5.65172 5.80397 3.07202 5.22993 0.488835C5.22646 0.473232 5.22016 0.447643 5.20864 0.420229C5.20291 0.406571 5.19223 0.383546 5.17418 0.358579C5.15798 0.336175 5.12021 0.290234 5.05323 0.261675C4.97289 0.22742 4.8863 0.233324 4.81572 0.267826C4.75717 0.296442 4.72367 0.337426 4.70927 0.357031C4.68051 0.396199 4.6675 0.434742 4.66344 0.446844C4.64539 0.500631 4.63521 0.575233 4.62901 0.622624C4.62077 0.685601 4.61446 0.743872 4.60887 0.795476C4.60256 0.853709 4.59717 0.903451 4.59097 0.94188C4.40864 2.07235 3.69714 5.88011 3.64594 6.1514C3.46603 7.10482 3.30346 8.08293 3.14468 9.07279C2.84009 8.88192 2.51744 8.71142 2.20039 8.60318C1.86559 8.48887 1.50801 8.43403 1.17659 8.52872C0.901484 8.60733 0.700986 8.80189 0.557844 9.02018C0.414714 9.23846 0.314594 9.50131 0.244459 9.76115C0.104472 10.2798 0.0686717 10.8447 0.0867064 11.1694C0.166614 12.6077 1.18906 13.3963 2.34901 13.8371C2.35277 13.8385 2.35653 13.8399 2.36029 13.8413ZM2.46119 13.2751C2.64346 12.2336 2.80884 11.1891 2.97299 10.1525L2.97609 10.1328C2.99988 9.98261 3.02364 9.83254 3.04743 9.68268C2.99891 9.65 2.95002 9.61785 2.90087 9.58638C2.5985 9.39281 2.29668 9.23238 2.01805 9.13726C1.73611 9.041 1.5065 9.0214 1.33163 9.07136C1.23071 9.10019 1.12836 9.1793 1.02978 9.32964C0.931189 9.48 0.850708 9.68075 0.789309 9.90822C0.666226 10.3642 0.635219 10.8686 0.650188 11.1381C0.71032 12.2204 1.439 12.867 2.46119 13.2751ZM8.86631 17.0697C8.88158 17.1325 8.89726 17.2064 8.91301 17.2886C8.89718 17.2159 8.88162 17.1429 8.86631 17.0697ZM14.3812 15.8389C14.3812 15.8389 14.3811 15.8384 14.3809 15.8374C14.3812 15.8383 14.3813 15.8388 14.3812 15.8389ZM20.1274 14.6399C20.2094 14.6574 20.3633 14.6918 20.4865 14.7984C20.5471 14.8508 20.6055 14.9055 20.6618 14.9621C20.8072 14.7051 20.9567 14.4501 21.1105 14.1974C20.9863 14.2557 20.8622 14.3117 20.7391 14.3666C20.6732 14.396 20.6076 14.4251 20.5424 14.454C20.402 14.5163 20.2635 14.5777 20.1274 14.6399ZM21.7104 13.2357C21.3751 13.4492 21.0066 13.6272 20.6189 13.8021C20.9586 13.4203 21.3367 13.0664 21.4779 12.9343C21.493 12.9201 21.5054 12.9085 21.5148 12.8997C21.5786 12.8394 21.9942 12.4895 22.4333 12.1859C22.4242 12.1983 22.415 12.2107 22.4059 12.2231C22.1526 12.5674 21.9119 12.9247 21.7104 13.2357ZM22.6432 13.5976C22.6431 13.5977 22.6434 13.5971 22.6441 13.5959C22.6435 13.597 22.6432 13.5975 22.6432 13.5976ZM24.1605 11.2381C24.1605 11.2381 24.1607 11.2382 24.161 11.2384C24.1607 11.2382 24.1605 11.2381 24.1605 11.2381ZM20.7438 15.9904C17.818 21.5563 16.7726 28.0687 16.8352 34.3237C16.8359 34.4024 16.8342 34.5182 16.8321 34.6633C16.8231 35.266 16.8067 36.3732 16.9315 37.4206C17.009 38.0713 17.1383 38.6676 17.3421 39.0895C17.5465 39.5128 17.7829 39.6843 18.059 39.6739C18.4205 39.6604 18.8023 39.3703 19.1708 38.9132C19.5275 38.4709 19.8154 37.9437 20.0046 37.5903C22.9014 32.1811 22.8669 25.2937 21.7594 19.3462C21.7532 19.3129 21.747 19.2795 21.7407 19.2458C21.6157 18.5728 21.4742 17.8114 21.2355 17.0958C21.1025 16.6971 20.9422 16.3218 20.7438 15.9904Z" fill="black"/>
</svg>
